<svg width="55" height="55" viewBox="0 0 55 55" fill="none" xmlns="http://www.w3.org/2000/svg">
<g clip-path="url(#clip0_28_39432)">
<path d="M27.5 0C12.336 0 0 12.336 0 27.5C0 42.664 12.336 55 27.5 55C42.664 55 55 42.664 55 27.5C55 12.336 42.664 0 27.5 0ZM27.5 48.125C16.1265 48.125 6.875 38.8735 6.875 27.5C6.875 16.1265 16.1265 6.875 27.5 6.875C38.8735 6.875 48.125 16.1265 48.125 27.5C48.125 38.8735 38.8735 48.125 27.5 48.125ZM34.375 18.3333H33.9258L32.1246 15.5306C31.4119 14.4215 30.1835 13.75 28.8658 13.75H26.1388C24.821 13.75 23.5927 14.4215 22.88 15.5306L21.0788 18.3333H20.6296C18.0973 18.3333 16.0463 20.3844 16.0463 22.9167V32.0833C16.0463 34.6156 18.0973 36.6667 20.6296 36.6667H34.3796C36.9119 36.6667 38.9629 34.6156 38.9629 32.0833V22.9167C38.9629 20.3844 36.9119 18.3333 34.3796 18.3333H34.375ZM27.5 32.0833C24.9677 32.0833 22.9167 30.0323 22.9167 27.5C22.9167 24.9677 24.9677 22.9167 27.5 22.9167C30.0323 22.9167 32.0833 24.9677 32.0833 27.5C32.0833 30.0323 30.0323 32.0833 27.5 32.0833Z" fill="#4563AA"/>
</g>
<defs>
<clipPath id="clip0_28_39432">
<rect width="55" height="55" fill="white"/>
</clipPath>
</defs>
</svg>
