<svg width="363" height="436" viewBox="0 0 363 436" fill="none" xmlns="http://www.w3.org/2000/svg">
<rect width="363" height="436" rx="20" fill="white"/>
<path d="M177.902 209.254C177.636 214.742 180.008 222.573 171.256 220.924C166.168 221.102 168.53 212.062 168.022 209.254C155.878 208.746 136.504 197.062 144.32 186.98C147.168 186.996 157.285 181.963 158.759 186.393C161.447 196.435 185.201 198.958 186.364 186.589C184.553 174.61 153.03 176.919 150.08 167.935C137.722 153.296 149.156 130.147 168.022 129.034C167.922 123.508 166.905 117.952 174.669 119.278C179.295 119.16 177.612 126.187 177.903 128.911C192.863 129.517 214.775 147.665 190.082 151.384C189.358 151.623 188.573 151.597 187.866 151.311C187.16 151.024 186.578 150.496 186.225 149.82C183.421 141.159 162.559 140.294 163.019 150.094C163.417 160.481 186.992 158.929 191.828 163.132C215.675 174.39 204.141 209.511 177.902 209.254Z" fill="#CAD9FC"/>
<path d="M270.005 196.322L260.615 186.933C264.776 166.585 261.554 145.42 251.528 127.232C241.502 109.043 225.326 95.0188 205.9 87.6725C186.473 80.3261 165.065 80.1377 145.513 87.1409C125.96 94.144 109.54 107.881 99.1949 125.891C88.85 143.9 85.2563 165.005 89.0578 185.423C92.8593 205.841 103.808 224.239 119.941 237.318C136.074 250.398 156.337 257.305 177.101 256.802C197.864 256.299 217.769 248.419 233.25 234.574V250.359C233.25 252.075 233.931 253.72 235.145 254.933C236.358 256.147 238.003 256.828 239.719 256.828H252.656C254.372 256.828 256.017 256.147 257.23 254.933C258.443 253.72 259.125 252.075 259.125 250.359V205.078C259.125 204.22 259.466 203.398 260.072 202.791C260.679 202.184 261.502 201.844 262.359 201.844H267.718C268.358 201.844 268.983 201.654 269.515 201.299C270.047 200.943 270.462 200.438 270.707 199.847C270.951 199.256 271.015 198.606 270.891 197.978C270.766 197.351 270.458 196.775 270.005 196.322ZM175.031 237.422C161.598 237.422 148.466 233.438 137.296 225.975C126.126 218.512 117.42 207.904 112.28 195.493C107.139 183.081 105.794 169.425 108.414 156.249C111.035 143.074 117.504 130.971 127.003 121.472C136.502 111.973 148.605 105.504 161.78 102.883C174.956 100.262 188.613 101.608 201.024 106.748C213.435 111.889 224.043 120.595 231.506 131.765C238.97 142.934 242.953 156.066 242.953 169.5C242.953 171.718 242.829 173.906 242.622 176.07L222.37 196.322C221.917 196.775 221.609 197.351 221.484 197.978C221.36 198.606 221.424 199.256 221.668 199.847C221.913 200.438 222.328 200.943 222.86 201.299C223.392 201.654 224.017 201.844 224.657 201.844H230.016C230.771 201.85 231.499 202.124 232.071 202.616C232.643 203.109 233.022 203.788 233.14 204.534C227.114 214.563 218.596 222.862 208.414 228.625C198.231 234.388 186.731 237.418 175.031 237.422Z" fill="#CAD9FC"/>
<path d="M203.878 169.266C201.218 165.29 197.496 162.14 193.136 160.171C187.241 157.857 181.127 156.149 174.886 155.072C172.191 154.831 169.59 153.964 167.289 152.54C165.199 150.085 165.391 146.163 173.888 146.286C175.535 146.14 177.194 146.408 178.711 147.067C180.229 147.725 181.558 148.753 182.577 150.056C183.779 151.745 185.491 153.005 187.46 153.651C189.43 154.297 191.555 154.295 193.524 153.646L196.711 152.583C198.152 152.092 199.458 151.271 200.525 150.185C201.592 149.1 202.391 147.78 202.857 146.331C203.324 144.882 203.445 143.344 203.212 141.839C202.978 140.335 202.396 138.906 201.512 137.667C199.069 134.463 196.006 131.784 192.505 129.789C189.004 127.794 185.138 126.525 181.136 126.057V124.219C181.283 113.613 164.639 113.618 164.787 124.219V126.283C131.62 134.035 134.699 178.295 172.088 180.88C175.46 181.296 178.732 182.312 181.747 183.878C186.195 188.224 179.321 192.125 173.828 191.569C168.219 191.569 164.492 189.908 162.432 186.491C161.386 184.716 159.805 183.319 157.915 182.498C156.026 181.678 153.925 181.477 151.914 181.925L147.483 182.941C145.997 183.302 144.615 184.006 143.449 184.996C142.282 185.986 141.364 187.235 140.766 188.643C140.168 190.051 139.907 191.579 140.005 193.106C140.103 194.633 140.556 196.116 141.329 197.436C146 205.418 153.884 210.337 164.788 212.088V215.985C164.641 226.591 181.285 226.586 181.136 215.985V212.114C202.316 210.203 215.674 186.682 203.878 169.266ZM195.849 198.23C190.979 203.059 184.452 205.849 177.596 206.034C176.795 206.11 176.051 206.482 175.509 207.077C174.968 207.673 174.668 208.449 174.668 209.254V215.985C174.657 216.43 174.473 216.854 174.154 217.165C173.836 217.476 173.408 217.65 172.962 217.65C172.517 217.65 172.089 217.476 171.77 217.165C171.452 216.854 171.267 216.43 171.257 215.985V209.254C171.256 208.454 170.96 207.684 170.426 207.09C169.891 206.496 169.155 206.121 168.36 206.037C157.965 204.944 150.947 201.062 146.914 194.167C146.629 193.728 146.455 193.227 146.407 192.707C146.358 192.186 146.436 191.662 146.634 191.178C146.832 190.695 147.144 190.266 147.544 189.929C147.944 189.592 148.419 189.357 148.929 189.244L153.36 188.228C154.042 188.088 154.751 188.166 155.385 188.454C156.02 188.741 156.547 189.221 156.891 189.827C160.173 195.275 165.871 198.037 173.827 198.037C185.998 199.513 195.478 186.081 185.419 178.552C181.689 176.47 177.6 175.109 173.367 174.539C139.805 171.767 141.314 136.421 168.411 132.244C169.195 132.149 169.918 131.77 170.443 131.179C170.967 130.587 171.257 129.824 171.257 129.034V124.219C171.267 123.773 171.452 123.35 171.77 123.039C172.089 122.728 172.517 122.553 172.962 122.553C173.408 122.553 173.836 122.728 174.154 123.039C174.473 123.35 174.657 123.773 174.668 124.219V128.912C174.668 129.718 174.968 130.494 175.511 131.09C176.053 131.685 176.797 132.057 177.599 132.133C181.215 132.222 184.767 133.108 188.001 134.729C191.235 136.349 194.071 138.664 196.307 141.507C196.595 141.922 196.782 142.399 196.853 142.899C196.925 143.399 196.879 143.909 196.72 144.388C196.56 144.867 196.292 145.303 195.935 145.661C195.579 146.018 195.144 146.288 194.665 146.449L191.478 147.512C190.815 147.722 190.101 147.715 189.442 147.49C188.783 147.266 188.214 146.836 187.817 146.264C186.212 144.118 184.099 142.406 181.667 141.281C179.236 140.156 176.562 139.653 173.888 139.819C161.617 139.819 159.786 146.256 159.786 150.094C160.378 157.809 164.899 159.523 173.621 161.417C179.394 162.414 185.054 163.979 190.519 166.089C202.939 171.405 205.434 188.583 195.849 198.23ZM272.293 194.036L264.205 185.95C272.639 136.854 242.914 81.0722 175.031 78.9375C54.292 82.7217 54.2597 256.246 175.031 260.062C194.731 259.915 213.915 253.754 230.016 242.403V250.359C230.018 252.932 231.042 255.398 232.861 257.217C234.68 259.036 237.146 260.06 239.719 260.062H252.656C255.229 260.06 257.695 259.036 259.514 257.217C261.333 255.398 262.357 252.932 262.359 250.359V205.078H267.719C268.99 205.059 270.228 204.669 271.279 203.955C272.331 203.241 273.15 202.235 273.637 201.061C274.123 199.886 274.255 198.595 274.016 197.347C273.777 196.099 273.178 194.948 272.293 194.036ZM175.031 253.594C62.9278 250.068 62.8955 88.9317 175.031 85.4062C235.96 87.3145 263.776 135.819 258.478 180.223L250.76 172.505C250.156 171.9 249.437 171.422 248.645 171.097C247.854 170.773 247.006 170.609 246.151 170.616L246.154 170.6C246.673 135.086 222.965 99.1847 175.031 98.3438C80.1671 99.9933 80.1347 238.974 175.031 240.656C199.871 240.203 218.178 230.371 230.016 216.043V234.09C216.431 245.475 198.092 252.882 175.031 253.594ZM224.656 205.078H229.854C219.601 221.67 201.327 233.735 175.031 234.188C88.8028 232.667 88.7705 106.333 175.031 104.812C220.434 105.621 241.943 141.026 239.525 174.593L220.081 194.036C219.196 194.948 218.597 196.099 218.358 197.347C218.12 198.596 218.252 199.887 218.738 201.061C219.224 202.235 220.044 203.241 221.096 203.955C222.147 204.669 223.385 205.059 224.656 205.078ZM262.359 198.609C260.644 198.611 259 199.294 257.787 200.506C256.575 201.719 255.893 203.363 255.891 205.078V250.359C255.89 251.217 255.549 252.039 254.942 252.646C254.336 253.252 253.514 253.593 252.656 253.594H239.719C238.861 253.593 238.039 253.252 237.433 252.646C236.826 252.039 236.485 251.217 236.484 250.359V205.078C236.482 203.363 235.8 201.719 234.588 200.506C233.375 199.294 231.731 198.611 230.016 198.609H224.656L246.188 177.079L267.719 198.609H262.359Z" fill="#4563AA"/>
<path d="M108.5 397H99.5227V367.909H108.898C111.72 367.909 114.134 368.491 116.142 369.656C118.15 370.812 119.688 372.473 120.759 374.642C121.829 376.801 122.364 379.386 122.364 382.398C122.364 385.428 121.824 388.037 120.744 390.224C119.665 392.402 118.093 394.079 116.028 395.253C113.964 396.418 111.455 397 108.5 397ZM103.045 393.875H108.273C110.678 393.875 112.671 393.411 114.253 392.483C115.834 391.555 117.013 390.234 117.79 388.52C118.566 386.806 118.955 384.765 118.955 382.398C118.955 380.049 118.571 378.027 117.804 376.332C117.037 374.628 115.891 373.321 114.366 372.412C112.842 371.493 110.943 371.034 108.67 371.034H103.045V393.875ZM128.273 397V367.909H145.83V371.034H131.795V380.864H144.92V383.989H131.795V393.875H146.057V397H128.273ZM152.179 397V367.909H162.009C164.291 367.909 166.156 368.321 167.605 369.145C169.063 369.959 170.143 371.062 170.844 372.455C171.545 373.847 171.895 375.4 171.895 377.114C171.895 378.828 171.545 380.385 170.844 381.787C170.152 383.188 169.082 384.306 167.634 385.139C166.185 385.963 164.329 386.375 162.065 386.375H155.02V383.25H161.952C163.514 383.25 164.769 382.98 165.716 382.44C166.663 381.901 167.349 381.171 167.776 380.253C168.211 379.325 168.429 378.278 168.429 377.114C168.429 375.949 168.211 374.907 167.776 373.989C167.349 373.07 166.658 372.35 165.702 371.83C164.745 371.299 163.476 371.034 161.895 371.034H155.702V397H152.179ZM202.115 382.455C202.115 385.523 201.561 388.174 200.453 390.409C199.345 392.644 197.825 394.367 195.893 395.58C193.962 396.792 191.755 397.398 189.274 397.398C186.793 397.398 184.587 396.792 182.655 395.58C180.723 394.367 179.203 392.644 178.095 390.409C176.987 388.174 176.433 385.523 176.433 382.455C176.433 379.386 176.987 376.735 178.095 374.5C179.203 372.265 180.723 370.542 182.655 369.33C184.587 368.117 186.793 367.511 189.274 367.511C191.755 367.511 193.962 368.117 195.893 369.33C197.825 370.542 199.345 372.265 200.453 374.5C201.561 376.735 202.115 379.386 202.115 382.455ZM198.706 382.455C198.706 379.936 198.285 377.81 197.442 376.077C196.608 374.344 195.477 373.032 194.047 372.142C192.626 371.252 191.036 370.807 189.274 370.807C187.513 370.807 185.917 371.252 184.487 372.142C183.067 373.032 181.935 374.344 181.092 376.077C180.259 377.81 179.842 379.936 179.842 382.455C179.842 384.973 180.259 387.099 181.092 388.832C181.935 390.565 183.067 391.877 184.487 392.767C185.917 393.657 187.513 394.102 189.274 394.102C191.036 394.102 192.626 393.657 194.047 392.767C195.477 391.877 196.608 390.565 197.442 388.832C198.285 387.099 198.706 384.973 198.706 382.455ZM223.947 375.182C223.777 373.742 223.086 372.625 221.874 371.83C220.661 371.034 219.175 370.636 217.413 370.636C216.125 370.636 214.999 370.845 214.033 371.261C213.076 371.678 212.328 372.251 211.788 372.98C211.258 373.709 210.993 374.538 210.993 375.466C210.993 376.242 211.178 376.91 211.547 377.469C211.926 378.018 212.409 378.477 212.996 378.847C213.583 379.206 214.198 379.505 214.842 379.741C215.486 379.969 216.078 380.153 216.618 380.295L219.572 381.091C220.33 381.29 221.173 381.564 222.101 381.915C223.038 382.265 223.933 382.743 224.786 383.349C225.647 383.946 226.357 384.713 226.916 385.651C227.475 386.588 227.754 387.739 227.754 389.102C227.754 390.674 227.342 392.095 226.518 393.364C225.704 394.633 224.511 395.641 222.939 396.389C221.376 397.137 219.478 397.511 217.243 397.511C215.16 397.511 213.356 397.175 211.831 396.503C210.316 395.83 209.123 394.893 208.251 393.69C207.39 392.488 206.902 391.091 206.788 389.5H210.425C210.519 390.598 210.889 391.508 211.533 392.227C212.186 392.937 213.01 393.468 214.004 393.818C215.008 394.159 216.088 394.33 217.243 394.33C218.588 394.33 219.795 394.112 220.865 393.676C221.935 393.231 222.783 392.616 223.408 391.83C224.033 391.034 224.345 390.106 224.345 389.045C224.345 388.08 224.075 387.294 223.536 386.688C222.996 386.081 222.286 385.589 221.405 385.21C220.524 384.831 219.572 384.5 218.55 384.216L214.97 383.193C212.697 382.54 210.898 381.607 209.572 380.395C208.247 379.183 207.584 377.597 207.584 375.636C207.584 374.008 208.024 372.587 208.905 371.375C209.795 370.153 210.988 369.206 212.484 368.534C213.99 367.852 215.671 367.511 217.527 367.511C219.402 367.511 221.069 367.848 222.527 368.52C223.985 369.183 225.141 370.092 225.993 371.247C226.855 372.402 227.309 373.714 227.357 375.182H223.947ZM237.069 367.909V397H233.546V367.909H237.069ZM242.541 371.034V367.909H264.359V371.034H255.212V397H251.689V371.034H242.541Z" fill="#4563AA"/>
</svg>
