<svg width="207" height="207" viewBox="0 0 207 207" fill="none" xmlns="http://www.w3.org/2000/svg">
<path d="M99.9024 143.254C99.6359 148.743 102.008 156.574 93.2564 154.924C88.1678 155.103 90.5305 146.062 90.022 143.254C77.8776 142.747 58.504 131.063 66.3202 120.981C69.1681 120.996 79.2849 115.963 80.7588 120.394C83.4472 130.435 107.201 132.958 108.364 120.59C106.553 108.611 75.03 110.919 72.0803 101.936C59.7224 87.2962 71.1562 64.1478 90.0223 63.0345C89.9224 57.5089 88.9052 51.9523 96.6687 53.2784C101.295 53.16 99.6119 60.1877 99.903 62.9113C114.863 63.5174 136.775 81.6652 112.082 85.3844C111.358 85.6235 110.573 85.5976 109.866 85.3112C109.16 85.0248 108.578 84.4966 108.225 83.8209C105.421 75.1599 84.5588 74.2941 85.0188 84.0942C85.4169 94.4814 108.992 92.9292 113.828 97.1326C137.675 108.391 126.141 143.511 99.9024 143.254Z" fill="#CAD9FC"/>
<path d="M192.005 130.323L182.615 120.934C186.776 100.585 183.554 79.4206 173.528 61.2318C163.502 43.0431 147.326 29.019 127.9 21.6727C108.473 14.3264 87.0654 14.1379 67.5126 21.1411C47.9598 28.1443 31.5398 41.8813 21.1949 59.8908C10.85 77.9002 7.2563 99.005 11.0578 119.423C14.8593 139.841 25.8076 158.239 41.9407 171.318C58.0739 184.398 78.3375 191.305 99.1005 190.803C119.864 190.3 139.769 182.419 155.25 168.574V184.36C155.25 186.075 155.931 187.721 157.145 188.934C158.358 190.147 160.003 190.828 161.719 190.828H174.656C176.372 190.828 178.017 190.147 179.23 188.934C180.443 187.721 181.125 186.075 181.125 184.36V139.078C181.125 138.221 181.466 137.398 182.072 136.791C182.679 136.185 183.502 135.844 184.359 135.844H189.718C190.358 135.844 190.983 135.654 191.515 135.299C192.047 134.943 192.462 134.438 192.707 133.847C192.951 133.256 193.015 132.606 192.891 131.979C192.766 131.351 192.458 130.775 192.005 130.323ZM97.0312 171.422C83.5975 171.422 70.4655 167.439 59.2958 159.975C48.1262 152.512 39.4204 141.904 34.2796 129.493C29.1387 117.082 27.7937 103.425 30.4144 90.2493C33.0352 77.0738 39.5042 64.9713 49.0032 55.4722C58.5022 45.9732 70.6048 39.5042 83.7803 36.8835C96.9559 34.2627 110.613 35.6078 123.024 40.7486C135.435 45.8894 146.043 54.5952 153.506 65.7649C160.97 76.9346 164.953 90.0666 164.953 103.5C164.953 105.719 164.829 107.907 164.622 110.071L144.37 130.323C143.917 130.775 143.609 131.351 143.484 131.979C143.36 132.606 143.424 133.256 143.668 133.847C143.913 134.438 144.328 134.943 144.86 135.299C145.392 135.654 146.017 135.844 146.657 135.844H152.016C152.771 135.85 153.499 136.124 154.071 136.617C154.643 137.109 155.022 137.789 155.14 138.534C149.114 148.563 140.596 156.863 130.414 162.625C120.231 168.388 108.731 171.419 97.0312 171.422Z" fill="#CAD9FC"/>
<path d="M125.878 103.266C123.218 99.2904 119.496 96.1397 115.136 94.1711C109.241 91.8571 103.127 90.1485 96.886 89.0718C94.1911 88.8314 91.5897 87.9644 89.2895 86.5399C87.1991 84.085 87.3906 80.1627 95.8876 80.2862C97.5354 80.1401 99.1936 80.4084 100.711 81.0668C102.229 81.7252 103.558 82.7527 104.577 84.0559C105.779 85.7448 107.491 87.0045 109.46 87.6505C111.43 88.2966 113.555 88.295 115.524 87.6461L118.711 86.5832C120.152 86.092 121.458 85.2709 122.525 84.1853C123.592 83.0997 124.391 81.7797 124.857 80.3307C125.324 78.8817 125.445 77.3437 125.212 75.8394C124.978 74.3352 124.396 72.9064 123.512 71.667C121.069 68.4629 118.006 65.7837 114.505 63.7891C111.004 61.7945 107.138 60.5254 103.136 60.0575V58.2188C103.283 47.6129 86.6386 47.6181 86.787 58.2188V60.2829C53.6201 68.0354 56.6986 112.295 94.088 114.88C97.4605 115.296 100.732 116.312 103.747 117.878C108.195 122.224 101.321 126.125 95.8284 125.569C90.219 125.569 86.4917 123.908 84.4324 120.491C83.3863 118.716 81.805 117.319 79.9154 116.498C78.0258 115.678 75.9249 115.477 73.9142 115.925L69.4831 116.941C67.9965 117.302 66.615 118.006 65.4487 118.996C64.2824 119.986 63.3636 121.235 62.7658 122.643C62.1679 124.051 61.9075 125.579 62.0053 127.106C62.1031 128.633 62.5564 130.116 63.3291 131.436C68.0005 139.418 75.8843 144.337 86.7877 146.088V149.985C86.6408 160.591 103.285 160.586 103.136 149.985V146.114C124.316 144.203 137.674 120.682 125.878 103.266ZM117.849 132.23C112.979 137.059 106.452 139.849 99.5961 140.034C98.7949 140.11 98.0509 140.482 97.5094 141.077C96.968 141.673 96.668 142.449 96.668 143.254V149.985C96.6574 150.43 96.4731 150.854 96.1543 151.165C95.8356 151.476 95.4078 151.65 94.9624 151.65C94.517 151.65 94.0892 151.476 93.7705 151.165C93.4517 150.854 93.2674 150.43 93.2568 149.985V143.254C93.2565 142.454 92.9604 141.684 92.4256 141.09C91.8908 140.496 91.1552 140.121 90.3604 140.037C79.9654 138.944 72.9471 135.062 68.9136 128.167C68.6293 127.728 68.4555 127.227 68.4068 126.707C68.3582 126.186 68.4362 125.662 68.6342 125.178C68.8322 124.695 69.1443 124.266 69.5439 123.929C69.9435 123.592 70.4187 123.357 70.9289 123.244L75.36 122.228C76.042 122.088 76.751 122.166 77.3854 122.454C78.0198 122.741 78.547 123.221 78.8913 123.827C82.1732 129.275 87.8712 132.037 95.8274 132.037C107.998 133.513 117.478 120.081 107.419 112.552C103.689 110.47 99.6004 109.109 95.3665 108.539C61.8054 105.767 63.3139 70.4214 90.4105 66.2442C91.1953 66.1493 91.9182 65.7704 92.4426 65.1789C92.967 64.5873 93.2566 63.8243 93.2568 63.0338V58.2188C93.2674 57.7734 93.4517 57.3499 93.7705 57.0387C94.0892 56.7275 94.517 56.5533 94.9624 56.5533C95.4078 56.5533 95.8356 56.7275 96.1543 57.0387C96.4731 57.3499 96.6574 57.7734 96.668 58.2188V62.9125C96.668 63.7178 96.9684 64.4941 97.5105 65.0896C98.0526 65.6852 98.7973 66.0571 99.599 66.1326C103.215 66.2218 106.767 67.1083 110.001 68.7288C113.235 70.3493 116.071 72.6638 118.307 75.5071C118.595 75.9225 118.782 76.399 118.853 76.899C118.925 77.3989 118.879 77.9087 118.72 78.388C118.56 78.8673 118.292 79.303 117.935 79.6607C117.579 80.0184 117.144 80.2882 116.665 80.4489L113.478 81.5117C112.815 81.7224 112.101 81.7149 111.442 81.4903C110.783 81.2658 110.214 80.8359 109.817 80.2639C108.212 78.1184 106.099 76.4059 103.667 75.2808C101.236 74.1557 98.5621 73.6534 95.8879 73.8191C83.6167 73.8191 81.786 80.2555 81.786 84.0938C82.3779 91.809 86.8993 93.5232 95.6208 95.4173C101.394 96.4141 107.054 97.9788 112.519 100.089C124.939 105.405 127.434 122.583 117.849 132.23ZM194.293 128.036L186.205 119.95C194.639 70.8542 164.914 15.0722 97.0313 12.9375C-23.708 16.7217 -23.7403 190.246 97.0313 194.062C116.731 193.915 135.915 187.754 152.016 176.403V184.359C152.018 186.932 153.042 189.398 154.861 191.217C156.68 193.036 159.146 194.06 161.719 194.062H174.656C177.229 194.06 179.695 193.036 181.514 191.217C183.333 189.398 184.357 186.932 184.359 184.359V139.078H189.719C190.99 139.059 192.228 138.669 193.279 137.955C194.331 137.241 195.15 136.235 195.637 135.061C196.123 133.886 196.255 132.595 196.016 131.347C195.777 130.099 195.178 128.948 194.293 128.036ZM97.0313 187.594C-15.0722 184.068 -15.1045 22.9317 97.0313 19.4062C157.96 21.3145 185.776 69.8195 180.478 114.223L172.76 106.505C172.156 105.9 171.437 105.422 170.645 105.097C169.854 104.773 169.006 104.609 168.151 104.616L168.154 104.6C168.673 69.0863 144.965 33.1847 97.0313 32.3438C2.16705 33.9933 2.13471 172.974 97.0313 174.656C121.871 174.203 140.178 164.371 152.016 150.043V168.09C138.431 179.475 120.092 186.882 97.0313 187.594ZM146.656 139.078H151.854C141.601 155.67 123.327 167.735 97.0313 168.188C10.8028 166.667 10.7705 40.3327 97.0313 38.8125C142.434 39.6211 163.943 75.0255 161.525 108.593L142.081 128.036C141.196 128.948 140.597 130.099 140.358 131.347C140.12 132.596 140.252 133.887 140.738 135.061C141.224 136.235 142.044 137.241 143.096 137.955C144.147 138.669 145.385 139.059 146.656 139.078ZM184.359 132.609C182.644 132.611 181 133.294 179.787 134.506C178.575 135.719 177.893 137.363 177.891 139.078V184.359C177.89 185.217 177.549 186.039 176.942 186.646C176.336 187.252 175.514 187.593 174.656 187.594H161.719C160.861 187.593 160.039 187.252 159.433 186.646C158.826 186.039 158.485 185.217 158.484 184.359V139.078C158.482 137.363 157.8 135.719 156.588 134.506C155.375 133.294 153.731 132.611 152.016 132.609H146.656L168.188 111.079L189.719 132.609H184.359Z" fill="#4563AA"/>
</svg>
