<svg width="51" height="51" viewBox="0 0 51 51" fill="none" xmlns="http://www.w3.org/2000/svg">
<path d="M25.0461 50.0738C24.57 50.0738 24.1138 49.8846 23.7773 49.5486L0.525313 26.3053C0.188785 25.9689 0 25.5129 0 25.037C0 24.5611 0.189217 24.1051 0.525313 23.7687L23.7773 0.525333C24.478 -0.175111 25.6141 -0.175111 26.3148 0.525333L49.5668 23.7687C50.2675 24.4691 50.2675 25.6049 49.5668 26.3053L26.3148 49.5486C25.9783 49.8846 25.5217 50.0738 25.0461 50.0738ZM4.33123 25.0366L25.0461 45.7437L45.7605 25.0366L25.0461 4.32984L4.33123 25.0366Z" fill="white"/>
<path d="M25.043 7.84789L7.84766 25.0369L25.043 42.2258L42.2384 25.0369L25.043 7.84789Z" fill="white"/>
</svg>
