<svg width="1324" height="731" viewBox="0 0 1324 731" fill="none" xmlns="http://www.w3.org/2000/svg">
<path d="M213.605 725.779C213.605 725.779 88.1771 591.113 192.394 445.315C284.861 315.951 381.714 368.604 472.012 397.888C537.505 419.126 602.575 380.05 685.244 248.42C797.979 68.9131 1188.76 177.782 1117.51 453.963C1083.03 587.61 1222.45 592.468 1151.41 726.067L213.605 725.785V725.779Z" fill="#BABABA"/>
<path d="M826.059 724.007C826.162 724.055 826.276 724.104 826.412 724.153H896.095C895.445 721.675 893.162 717.153 885.192 715.857C874.38 714.101 855.642 707.822 851.456 693.985C851.326 693.546 851.206 693.085 851.098 692.624C847.78 677.844 823.646 697.151 823.646 697.151C823.646 697.151 823.57 697.737 823.473 698.74C822.909 704.162 821.483 721.708 826.065 724.001L826.059 724.007Z" fill="#434445"/>
<path d="M918.223 473.732C918.223 473.732 872.905 634.711 859.253 696.961C859.253 696.961 825.615 703.712 820.388 693.139C820.388 693.139 831.226 517.834 851.163 495.571C875.963 467.87 918.223 473.732 918.223 473.732Z" fill="#434445"/>
<path d="M921.964 310.572C921.964 310.572 920.777 303.372 922.631 297.375C924.485 291.378 932.244 275.562 929.788 270.064C927.332 264.567 918.445 249.781 912.964 249.824C907.482 249.867 918.727 265.651 917.182 270.58C915.637 275.508 915.127 275.909 913.224 275.476C911.321 275.042 908.42 265.602 907.455 267.803C906.49 270.005 907.054 284.612 908.865 288.261C910.676 291.91 906.961 312.47 906.961 312.47L921.964 310.572Z" fill="#AC9C8F"/>
<path d="M926.351 307.368C926.351 307.368 914.216 300.476 904.831 303.383C904.831 303.383 886.206 357.023 875.948 396.462C856.26 347.881 844.148 299.43 844.148 299.43C844.148 299.43 820.274 332.396 811.659 354.312C803.043 376.233 854.536 453.133 874.522 459.168C895.375 465.468 891.579 459.157 903.351 452.423C907.135 447.511 919.242 423.063 926.345 307.362L926.351 307.368Z" fill="#27458B"/>
<path d="M981.243 726.517C981.341 726.566 981.46 726.614 981.596 726.663H1051.28C1050.63 724.185 1048.35 719.663 1040.38 718.373C1029.56 716.616 1010.83 710.337 1006.64 696.501C1006.51 696.061 1006.39 695.6 1006.28 695.14C1002.96 680.359 978.825 699.667 978.825 699.667C978.825 699.667 978.749 700.253 978.652 701.261C978.088 706.683 976.662 724.229 981.243 726.522V726.517Z" fill="#434445"/>
<path d="M931.745 469.828C931.745 469.828 924.957 472.848 916.58 479.024C915.626 474.171 914.254 471.021 914.254 471.021C854.455 455.449 694.386 456.717 694.386 456.717C694.386 456.717 659.972 465.338 670.079 515.432C679.378 561.53 833.07 540.184 882.714 526.358C883.874 526.032 884.997 525.696 886.087 525.344C882.139 554.715 909.797 596.616 934.012 635.178C953.976 666.967 970.963 699.141 970.963 699.141C980.988 705.36 1014.64 701.76 1014.64 701.76C993.372 641.684 931.751 469.828 931.751 469.828H931.745Z" fill="#686868"/>
<path d="M799.774 283.159C799.774 283.159 816.94 338.116 842.727 350.408C842.727 350.408 845.167 333.735 840.992 321.053C844.397 318.445 847.412 316.027 850.047 313.847C858.793 306.571 863.212 301.908 863.212 301.908L859.378 275.112L856.776 256.927C852.584 261.731 848.252 265.662 843.936 268.893C821.673 285.495 799.774 283.153 799.774 283.153V283.159Z" fill="#CDB7A4"/>
<path d="M843.936 268.899C843.936 268.899 835.288 292.69 850.046 313.853C858.792 306.576 863.211 301.913 863.211 301.913L859.378 275.118C850.144 269.956 843.936 268.899 843.936 268.899Z" fill="#AC9C8F"/>
<path d="M869.75 307.119C869.75 307.119 831.731 281.895 847.802 258.461C863.873 235.027 869.793 215.991 894.745 231.102C919.698 246.218 918.234 258.358 914.769 267.484C911.31 276.609 880.052 313.072 869.745 307.119H869.75Z" fill="#CDB7A4"/>
<path d="M852.226 209.403C852.058 208.763 851.348 207.966 849.423 206.887C849.423 206.887 851.5 206.659 853.641 207.641C855.425 205.049 859.313 200.82 864.637 201.937C864.637 201.937 861.417 202.067 859.627 204.875C867.918 201.839 881.717 203.433 912.991 221.993C954.209 246.451 926.399 267.424 919.215 268.026C912.031 268.628 902.521 252.665 891.764 248.425C881.006 244.191 871.599 258.412 867.066 258.776C862.534 259.139 865.722 256.13 862.04 251.624C858.359 247.118 853.988 254.888 852.817 260.76C851.641 266.632 841.756 270.287 841.756 270.287L838.698 259.844C835.64 249.401 844.391 215.801 850.583 210.758C851.131 210.314 851.679 209.858 852.237 209.403H852.226Z" fill="#686868"/>
<path d="M846.034 374.731C834.616 401.776 824.178 419.045 822.812 421.306C817.889 429.439 812.608 436.905 807.777 443.422C807.625 443.628 807.473 443.835 807.321 444.041C797.805 456.842 783.258 460.366 783.708 463.576C784.619 470.017 768.353 485.465 741.53 492.318C710.408 500.272 674.346 504.095 665.232 493.576C662.185 490.041 661.171 483.545 661.507 475.472C662.174 458.463 683.585 389.956 683.585 389.956C720.216 279.108 825.111 279.108 825.111 279.108C825.111 279.108 823.056 305.665 848.8 314.877C848.832 314.932 854.85 353.856 846.034 374.726V374.731Z" fill="#4563AA"/>
<path d="M907.639 453.605C907.639 453.605 923.39 459.174 927.711 461.879C932.033 464.585 941.977 478.194 943.094 482.965C944.211 487.737 945.528 501.758 944.709 504.106C943.896 506.453 931.838 497.458 929.159 488.989C926.481 480.52 919.595 478.243 919.855 478.698C920.121 479.154 923.645 489.992 922.902 490.464C922.159 490.93 918.949 491.744 916.043 485.693C913.137 479.642 907.373 475.217 908.463 468.966C909.553 462.714 907.645 453.605 907.645 453.605H907.639Z" fill="#CDB7A4"/>
<path d="M784.223 464.476C785.134 470.918 768.342 485.47 741.525 492.324C719.154 447.814 761.69 345.929 761.69 345.929L807.771 443.428C798.05 456.555 783.763 461.218 784.223 464.482V464.476Z" fill="#27458B"/>
<path d="M822.806 421.306C817.883 429.439 812.602 436.905 807.771 443.422C807.619 443.628 807.467 443.835 807.315 444.041C800.993 441.601 794.72 436.743 791.559 432.275C784.299 422.027 783.703 360.411 783.703 360.411C783.703 360.411 813.415 397.118 822.806 421.301V421.306Z" fill="#27458B"/>
<path d="M913.68 454.988C913.68 454.988 841.805 434.867 804.914 426.067C808.167 382.544 818.821 250.946 751.789 303.627C751.789 303.627 746.725 444.653 779.203 473.216C779.203 473.216 883.463 475.423 903.313 474.209C903.313 474.209 909.147 471.189 910.595 469.177C915.23 462.741 913.674 454.993 913.674 454.993L913.68 454.988Z" fill="#4563AA"/>
<path d="M497.437 666.137L500.088 665.899C499.074 646.596 484.467 635.79 484.467 635.79C474.236 626.725 470.912 616.77 470.912 616.77C470.912 616.77 488.176 596.632 471.975 583.842C471.975 583.842 460.144 576.679 450.498 577.26C450.498 577.26 464.167 600.184 459.748 602.461C455.324 604.744 446.356 575.823 446.356 575.823C446.356 575.823 419.43 573.209 410.771 577.373C410.771 577.373 433.788 596.21 428.94 597.332C424.093 598.454 399.233 579.965 399.233 579.965C399.233 579.965 374.173 584.227 375.512 599.517C376.846 614.802 385.483 619.524 389.278 619.118C393.074 618.711 415.271 610.236 415.754 613.349C416.237 616.455 402.877 626.622 393.518 627.093C393.518 627.093 411.183 646.575 422.927 640.952C434.666 635.329 435.669 626.416 442.989 623.076C450.309 619.73 456.555 619.741 453.535 623.152C450.515 626.562 437.269 629.875 433.083 637.276C428.897 644.682 425.14 649.671 437.29 647.843C449.436 646.016 469.183 637.124 470.05 626.947C470.088 626.502 470.126 626.079 470.158 625.673C470.175 626.481 470.05 626.947 470.05 626.947C472.582 627.397 477.847 632.06 481.648 635.714C482.233 636.354 483.095 637.216 484.337 638.36C484.803 638.827 485.188 639.222 485.476 639.521C493.191 647.968 497.437 666.132 497.437 666.132V666.137Z" fill="#27458B"/>
<path d="M531.265 591.443C531.265 591.443 503.808 576.067 516.62 555.197C516.62 555.197 526.873 542.385 537.858 539.089C537.858 539.089 532.002 570.211 537.858 570.943C543.714 571.675 541.886 535.797 541.886 535.797C541.886 535.797 570.807 521.884 582.161 522.985C582.161 522.985 564.22 553.376 570.081 552.644C575.937 551.912 596.074 521.158 596.074 521.158C596.074 521.158 625.732 515.665 630.488 533.238C635.248 550.811 627.56 559.6 623.168 560.695C618.776 561.796 590.581 561.427 591.313 565.087C592.045 568.747 611.082 574.608 621.704 571.312C621.704 571.312 609.987 600.233 594.61 598.769C579.233 597.305 574.473 587.784 564.952 587.052C555.431 586.32 548.474 588.884 553.235 591.443C557.995 594.008 574.104 592.284 581.792 598.817C589.481 605.356 595.705 609.38 581.429 612.313C567.153 615.241 541.523 613.413 536.394 602.428L531.27 591.443H531.265Z" fill="#4563AA"/>
<path d="M616.938 538.72C616.938 538.72 540.054 563.618 531.265 591.444C531.265 591.444 531.628 603.893 523.945 618.169C523.945 618.169 512.087 636.175 518.848 658.091L521.901 657.272C521.901 657.272 519.233 635.525 524.265 622.935C524.471 622.468 524.769 621.802 525.143 620.983C526.054 619.199 526.667 617.887 527.057 616.938C529.801 611.31 533.753 603.968 536.394 602.429C536.394 602.429 519.184 578.263 616.938 538.725V538.72Z" fill="#27458B"/>
<path d="M487.579 570.238C487.579 570.238 523.777 549.971 506.882 522.459C506.882 522.459 493.37 505.57 478.888 501.227C478.888 501.227 486.609 542.25 478.888 543.215C471.167 544.18 473.58 496.884 473.58 496.884C473.58 496.884 435.452 478.546 420.493 479.994C420.493 479.994 444.138 520.052 436.417 519.087C428.696 518.122 402.15 477.581 402.15 477.581C402.15 477.581 363.057 470.343 356.784 493.506C350.511 516.669 360.644 528.255 366.435 529.703C372.226 531.151 409.388 530.668 408.423 535.494C407.458 540.319 382.36 548.04 368.365 543.697C368.365 543.697 383.807 581.825 404.08 579.895C424.348 577.964 430.626 565.418 443.173 564.453C455.719 563.488 464.893 566.866 458.615 570.243C452.342 573.621 431.103 571.35 420.97 579.965C410.836 588.581 402.632 593.889 421.452 597.749C440.272 601.61 474.057 599.197 480.813 584.72L487.568 570.243L487.579 570.238Z" fill="#4563AA"/>
<path d="M497.23 605.465C487.097 586.645 487.579 570.233 487.579 570.233C475.998 533.553 374.649 500.739 374.649 500.739C503.509 552.861 480.823 584.715 480.823 584.715C484.293 586.743 489.504 596.399 493.115 603.811C493.63 605.075 494.443 606.815 495.653 609.185C496.146 610.258 496.536 611.131 496.807 611.744C503.444 628.346 499.925 657.012 499.925 657.012L503.948 658.091C512.857 629.197 497.23 605.465 497.23 605.465Z" fill="#27458B"/>
<path d="M417.901 649.844C417.901 689.002 449.647 720.748 488.805 720.748C496.981 720.748 504.832 719.365 512.136 716.817C539.831 707.171 559.703 680.825 559.703 649.844H417.901Z" fill="#686868"/>
<path d="M464.568 649.844C464.568 676.412 470.934 703.462 492.557 715.608C496.152 717.625 508.188 715.44 512.136 716.817C539.831 707.171 559.703 680.825 559.703 649.844H464.568Z" fill="#6D89CF"/>
<path d="M488.799 720.742C491.684 721.106 477.175 720.742 480.162 720.742C519.32 720.742 551.06 688.996 551.06 649.839H533.444C533.444 686.014 523.798 716.405 488.799 720.742Z" fill="#BED2FA"/>
<path d="M416.92 724.353H560.685C560.685 721.935 559.703 719.75 558.12 718.167C556.537 716.584 554.352 715.602 551.934 715.602H425.666C420.835 715.602 416.92 719.517 416.92 724.353Z" fill="#686868"/>
<path d="M484.277 724.353H560.679C560.679 721.935 559.698 719.75 558.114 718.167C556.531 716.584 554.346 715.602 551.928 715.602H493.018C488.187 715.602 484.272 719.517 484.272 724.353H484.277Z" fill="#6D89CF"/>
<path d="M416.285 652.013H562.035V649.839H416.285V652.013Z" fill="#58595B"/>
<path d="M677.99 531.162H841.886C847.628 531.162 852.291 535.825 852.291 541.566V569.289C852.291 575.031 847.628 579.694 841.886 579.694H677.99C672.248 579.694 667.585 575.031 667.585 569.289V541.566C667.585 535.825 672.248 531.162 677.99 531.162Z" fill="#6D89CF"/>
<path d="M852.297 564.247V569.294C852.297 575.02 847.612 579.699 841.892 579.699H677.995C672.27 579.699 667.59 575.015 667.59 569.294V563.829H849.315C850.345 563.829 851.353 563.976 852.297 564.247Z" fill="#686868"/>
<path d="M707.041 579.699L699.65 607.682L699.64 607.693L668.88 724.164H665.644L683.422 627.532C683.439 627.435 683.466 627.343 683.482 627.24L692.276 579.45L707.035 579.699H707.041Z" fill="#4563AA"/>
<path d="M707.041 579.699L699.65 607.682L699.64 607.693C699.217 607.899 685.765 614.856 683.482 627.24L692.276 579.45L707.035 579.699H707.041Z" fill="#3662C1"/>
<path d="M852.296 724.164H849.06L823.999 629.284V629.267L818.3 607.693L818.29 607.682L810.899 579.699L825.658 579.45L830.69 606.777L834.453 627.245C834.469 627.348 834.496 627.446 834.512 627.538L852.291 724.169L852.296 724.164Z" fill="#4563AA"/>
<path d="M802.338 616.347C802.338 616.347 802.305 616.347 802.284 616.314C802.213 616.195 802.23 616.217 802.338 616.347Z" fill="#3662C1"/>
<path d="M830.695 606.771C827.973 610.735 824.216 618.185 823.999 629.267L818.3 607.693L818.29 607.682L810.899 579.699L825.658 579.45L830.69 606.777L830.695 606.771Z" fill="#3662C1"/>
<path d="M660.666 182.651C655.998 204.675 649.405 224.801 640.887 242.819C640.502 243.648 640.106 244.467 639.699 245.286C639.499 245.703 639.298 246.115 639.092 246.527C638.582 247.563 638.062 248.588 637.531 249.607C637.254 250.155 636.967 250.702 636.679 251.245C636.17 252.226 635.644 253.197 635.118 254.162C634.586 255.138 634.044 256.108 633.497 257.068C632.559 258.732 631.599 260.375 630.612 261.996C630.428 262.311 630.238 262.62 630.043 262.929C629.533 263.769 629.018 264.599 628.481 265.429C628.286 265.748 628.08 266.068 627.874 266.383C627.364 267.185 626.844 267.982 626.312 268.774C626.036 269.202 625.749 269.62 625.461 270.048C624.951 270.813 624.431 271.572 623.9 272.325V272.331C623.618 272.737 623.33 273.144 623.038 273.556C623.01 273.6 622.983 273.637 622.951 273.675C622.441 274.402 621.926 275.123 621.389 275.839C621.194 276.115 620.988 276.397 620.782 276.668C620.267 277.368 619.746 278.062 619.22 278.75C618.944 279.119 618.657 279.488 618.369 279.851C617.859 280.518 617.339 281.18 616.808 281.841C616.265 282.524 615.718 283.207 615.159 283.874C614.65 284.503 614.129 285.127 613.598 285.745C613.213 286.2 612.828 286.656 612.432 287.106C612.405 287.144 612.372 287.176 612.34 287.214C612.269 287.296 612.199 287.382 612.123 287.464C611.613 288.06 611.093 288.646 610.561 289.231C609.428 290.511 608.273 291.763 607.091 293C606.582 293.542 606.061 294.084 605.53 294.621C604.315 295.879 603.074 297.109 601.81 298.319C601.295 298.823 600.775 299.316 600.249 299.81C599.343 300.666 598.416 301.512 597.494 302.342C597.484 302.352 597.478 302.358 597.467 302.369C596.941 302.84 596.405 303.318 595.868 303.784C595.353 304.239 594.832 304.684 594.306 305.123C591.487 307.525 588.586 309.824 585.604 312.02C585.089 312.405 584.568 312.784 584.042 313.159C581.912 314.693 579.732 316.179 577.52 317.605C576.424 318.315 575.318 319.014 574.207 319.698C571.794 321.178 569.338 322.598 566.827 323.954C564.908 324.995 562.962 326.003 560.988 326.974C558 328.443 554.948 329.831 551.841 331.127C551.326 331.349 550.805 331.566 550.279 331.778C549.374 332.146 548.463 332.51 547.541 332.862C546.213 333.377 544.879 333.876 543.534 334.364C540.552 335.443 537.511 336.441 534.426 337.368C533.33 337.699 532.23 338.019 531.123 338.322C526.867 339.52 522.513 340.578 518.056 341.489C514.651 342.193 511.187 342.817 507.662 343.348C499.573 344.59 491.174 345.398 482.477 345.756C481.057 345.821 479.631 345.864 478.194 345.897C476.101 345.951 473.992 345.978 471.861 345.978C469.302 345.978 466.732 345.951 464.145 345.891C442.43 345.409 419.972 342.882 398.279 338.257C396.641 337.91 395.004 337.552 393.377 337.178C374.118 332.77 355.564 326.692 338.772 318.9C338.344 318.705 337.921 318.505 337.498 318.304C333.274 316.314 329.159 314.21 325.179 311.993C280.963 287.409 253.066 249.222 265.25 196.607C284.194 114.848 398.447 27.3207 500.484 5.85498C649.627 -25.5276 683.618 74.4001 660.666 182.656V182.651Z" fill="#BABABA"/>
<path d="M577.531 317.605C576.435 318.315 575.329 319.014 574.218 319.698C571.805 321.178 569.349 322.598 566.839 323.954C564.919 324.995 562.973 326.003 560.999 326.974C558.011 328.443 554.959 329.831 551.852 331.127C551.337 331.349 550.816 331.566 550.291 331.778C549.385 332.146 548.474 332.51 547.552 332.862H490.019C489.472 332.862 488.946 332.727 488.49 332.488C487.52 331.978 486.826 331.002 486.717 329.864L486.707 329.712V320.749C486.799 319.004 488.257 317.599 490.025 317.599H577.531V317.605Z" fill="#A8B6D4"/>
<path d="M551.852 317.605V331.127C551.336 331.349 550.816 331.566 550.29 331.778V317.605H551.852Z" fill="#27458B"/>
<path d="M538.698 317.599H537.136V332.857H538.698V317.599Z" fill="#27458B"/>
<path d="M597.505 302.342C597.505 302.342 597.489 302.358 597.478 302.369C596.952 302.84 596.415 303.318 595.879 303.784C595.364 304.239 594.843 304.684 594.317 305.123C591.498 307.525 588.597 309.824 585.615 312.02C585.1 312.405 584.579 312.784 584.053 313.159C581.922 314.693 579.743 316.179 577.531 317.605H493.316C491.543 317.605 490.09 316.206 489.998 314.454C489.998 314.4 489.998 314.341 489.998 314.286V305.671C489.998 305.611 489.998 305.557 489.998 305.503C490.079 303.887 491.331 302.569 492.92 302.374C493.05 302.358 493.18 302.347 493.316 302.347H597.505V302.342Z" fill="#A8B6D4"/>
<path d="M595.874 302.342V303.779C595.358 304.234 594.838 304.679 594.312 305.118V302.342H595.874Z" fill="#27458B"/>
<path d="M585.609 302.342V312.02C585.094 312.405 584.574 312.784 584.048 313.159V302.342H585.609Z" fill="#27458B"/>
<path d="M569.875 302.342H568.313V317.599H569.875V302.342Z" fill="#27458B"/>
<path d="M555.143 302.342H553.582V317.599H555.143V302.342Z" fill="#27458B"/>
<path d="M541.984 302.342H540.422V317.599H541.984V302.342Z" fill="#27458B"/>
<path d="M607.102 287.106V293C608.284 291.763 609.439 290.511 610.572 289.231V287.106H607.102ZM607.102 287.106V293C608.284 291.763 609.439 290.511 610.572 289.231C611.098 288.646 611.619 288.06 612.134 287.464C612.21 287.382 612.28 287.296 612.351 287.214C612.383 287.176 612.416 287.144 612.443 287.106H607.108H607.102ZM607.102 287.106V293C608.284 291.763 609.439 290.511 610.572 289.231C611.098 288.646 611.619 288.06 612.134 287.464C612.21 287.382 612.28 287.296 612.351 287.214C612.383 287.176 612.416 287.144 612.443 287.106H607.108H607.102ZM607.102 287.106V293C608.284 291.763 609.439 290.511 610.572 289.231C611.098 288.646 611.619 288.06 612.134 287.464C612.21 287.382 612.28 287.296 612.351 287.214C612.383 287.176 612.416 287.144 612.443 287.106H607.108H607.102ZM607.102 287.106V293C608.284 291.763 609.439 290.511 610.572 289.231C611.098 288.646 611.619 288.06 612.134 287.464C612.21 287.382 612.28 287.296 612.351 287.214C612.383 287.176 612.416 287.144 612.443 287.106H607.108H607.102ZM607.102 287.106V293C608.284 291.763 609.439 290.511 610.572 289.231C611.098 288.646 611.619 288.06 612.134 287.464C612.21 287.382 612.28 287.296 612.351 287.214C612.383 287.176 612.416 287.144 612.443 287.106H607.108H607.102ZM607.102 287.106V293C608.284 291.763 609.439 290.511 610.572 289.231V287.106H607.102ZM483.225 287.106C482.981 287.106 482.737 287.133 482.504 287.187C482.472 287.187 482.439 287.198 482.407 287.209C481.154 287.529 480.184 288.564 479.956 289.855C479.94 289.942 479.929 290.028 479.923 290.12C479.923 290.164 479.913 290.213 479.913 290.256C479.913 290.316 479.913 290.37 479.913 290.424V299.04C479.913 299.099 479.913 299.154 479.913 299.208C479.913 299.289 479.923 299.36 479.934 299.435C479.956 299.587 479.983 299.734 480.021 299.88C480.395 301.306 481.696 302.358 483.231 302.358H597.484C597.484 302.358 597.505 302.342 597.511 302.331C598.438 301.501 599.36 300.655 600.265 299.799C600.791 299.305 601.312 298.812 601.827 298.308C603.085 297.104 604.332 295.868 605.546 294.61C606.072 294.073 606.593 293.531 607.108 292.989C608.29 291.752 609.445 290.5 610.578 289.22C611.104 288.635 611.624 288.049 612.139 287.453C612.215 287.371 612.286 287.285 612.356 287.203C612.389 287.165 612.421 287.133 612.448 287.095H483.236L483.225 287.106Z" fill="#A8B6D4"/>
<path d="M556.401 302.363H482.862C481.284 302.363 479.983 300.959 479.902 299.213C479.902 299.153 479.902 299.099 479.902 299.045V290.429C479.902 290.375 479.902 290.316 479.902 290.261C479.902 290.213 479.907 290.169 479.913 290.12C480.032 288.684 480.981 287.502 482.212 287.193C482.255 287.182 482.298 287.171 482.336 287.165C482.51 287.133 482.683 287.111 482.862 287.111H547.368C547.373 287.149 547.384 287.182 547.395 287.22C548.436 291.693 550.838 297.831 556.369 302.347C556.379 302.352 556.39 302.363 556.396 302.369L556.401 302.363Z" fill="#27458B"/>
<path d="M607.102 287.106V293C606.592 293.542 606.072 294.084 605.541 294.621V287.106H607.102Z" fill="#27458B"/>
<path d="M601.821 287.106V298.319C601.306 298.823 600.785 299.316 600.259 299.81V287.111H601.821V287.106Z" fill="#27458B"/>
<path d="M595.488 287.106H593.927V302.363H595.488V287.106Z" fill="#27458B"/>
<path d="M585.783 287.106H584.221V302.363H585.783V287.106Z" fill="#27458B"/>
<path d="M575.519 287.106H573.958V302.363H575.519V287.106Z" fill="#27458B"/>
<path d="M559.784 287.106H558.223V302.363H559.784V287.106Z" fill="#27458B"/>
<path d="M545.047 287.106H543.485V302.363H545.047V287.106Z" fill="#27458B"/>
<path d="M531.894 287.106H530.332V302.363H531.894V287.106Z" fill="#27458B"/>
<path d="M612.128 287.106V287.464C611.619 288.06 611.098 288.646 610.567 289.231V287.106H612.128Z" fill="#27458B"/>
<path d="M612.346 272.331V271.951H611.841V287.106H612.438C612.834 286.656 613.219 286.206 613.603 285.745C614.129 285.127 614.65 284.503 615.165 283.874V272.331H612.351H612.346ZM622.951 273.421C622.859 273.285 622.761 273.16 622.653 273.041C622.647 273.03 622.631 273.019 622.626 273.014C622.615 273.003 622.609 272.992 622.604 272.987C622.577 272.96 622.55 272.933 622.523 272.906C622.485 272.873 622.452 272.84 622.414 272.808C622.376 272.775 622.344 272.743 622.306 272.71C622.23 272.651 622.154 272.591 622.067 272.531C621.959 272.456 621.845 272.39 621.731 272.331C621.677 272.304 621.623 272.271 621.568 272.249C621.541 272.239 621.509 272.222 621.487 272.212C621.46 272.201 621.427 272.19 621.4 272.179C621.205 272.098 620.999 272.043 620.793 272.011C620.777 272.011 620.761 272.011 620.75 272C620.739 272 620.723 271.989 620.706 271.989C620.685 271.989 620.663 271.989 620.641 271.978C620.625 271.978 620.598 271.968 620.576 271.968C620.565 271.968 620.549 271.968 620.533 271.968H620.522C620.522 271.968 620.479 271.968 620.457 271.968C620.376 271.957 620.289 271.957 620.202 271.957H482.944C481.171 271.957 479.718 273.356 479.625 275.107C479.625 275.161 479.625 275.221 479.625 275.275V283.891C479.625 283.95 479.625 284.004 479.625 284.059C479.625 284.156 479.636 284.259 479.653 284.357C479.859 285.767 480.954 286.9 482.353 287.149C482.407 287.16 482.461 287.171 482.515 287.176C482.656 287.193 482.803 287.203 482.949 287.203H612.356C612.389 287.165 612.421 287.133 612.449 287.095C612.844 286.645 613.229 286.195 613.614 285.734C614.14 285.116 614.661 284.492 615.176 283.863C615.734 283.197 616.282 282.513 616.824 281.83C617.356 281.169 617.876 280.507 618.386 279.84C618.678 279.477 618.96 279.108 619.237 278.74C619.763 278.051 620.278 277.357 620.799 276.658C621.005 276.381 621.211 276.105 621.406 275.828C621.937 275.112 622.458 274.391 622.967 273.665C623 273.621 623.032 273.589 623.054 273.545C623.027 273.497 622.994 273.448 622.967 273.41L622.951 273.421ZM612.346 272.331V271.951H611.841V287.106H612.438C612.834 286.656 613.219 286.206 613.603 285.745C614.129 285.127 614.65 284.503 615.165 283.874V272.331H612.351H612.346Z" fill="#A8B6D4"/>
<path d="M556.113 287.214H482.58C482.52 287.214 482.461 287.214 482.407 287.209C482.341 287.209 482.282 287.198 482.217 287.187C480.802 286.992 479.69 285.674 479.62 284.064C479.62 284.004 479.62 283.95 479.62 283.896V275.28C479.62 275.226 479.62 275.167 479.62 275.112C479.701 273.366 481.002 271.962 482.58 271.962H547.086C547.113 272.087 547.145 272.212 547.178 272.336C548.246 276.755 550.637 282.692 555.989 287.111C556.032 287.149 556.075 287.182 556.119 287.22L556.113 287.214Z" fill="#27458B"/>
<path d="M606.815 271.957H605.253V287.214H606.815V271.957Z" fill="#27458B"/>
<path d="M601.534 271.957H599.973V287.214H601.534V271.957Z" fill="#27458B"/>
<path d="M595.201 271.957H593.64V287.214H595.201V271.957Z" fill="#27458B"/>
<path d="M585.496 271.957H583.934V287.214H585.496V271.957Z" fill="#27458B"/>
<path d="M575.231 271.957H573.67V287.214H575.231V271.957Z" fill="#27458B"/>
<path d="M559.497 271.957H557.936V287.214H559.497V271.957Z" fill="#27458B"/>
<path d="M544.76 271.957H543.199V287.214H544.76V271.957Z" fill="#27458B"/>
<path d="M531.606 271.957H530.044V287.214H531.606V271.957Z" fill="#27458B"/>
<path d="M611.841 271.957H610.28V287.214H611.841V271.957Z" fill="#27458B"/>
<path d="M615.159 271.957V283.88C614.65 284.509 614.129 285.132 613.598 285.75V271.957H615.159Z" fill="#27458B"/>
<path d="M618.369 271.957V279.851C617.859 280.518 617.339 281.18 616.808 281.841V271.951H618.369V271.957Z" fill="#27458B"/>
<path d="M620.782 272.011V276.674C620.267 277.373 619.747 278.067 619.221 278.756V271.962H620.191C620.278 271.962 620.359 271.962 620.446 271.973C620.473 271.973 620.489 271.973 620.511 271.973H620.522C620.522 271.973 620.549 271.973 620.565 271.973C620.587 271.973 620.609 271.973 620.63 271.984C620.652 271.984 620.674 271.995 620.695 271.995C620.706 271.995 620.723 271.995 620.739 271.995C620.75 271.995 620.766 271.995 620.782 272.006V272.011Z" fill="#27458B"/>
<path d="M630.607 260.397V262.002C630.423 262.316 630.233 262.625 630.038 262.934C629.528 263.775 629.013 264.604 628.476 265.434C628.281 265.754 628.075 266.074 627.869 266.388C627.359 267.191 626.839 267.988 626.307 268.779C626.031 269.208 625.743 269.625 625.456 270.054C624.946 270.818 624.426 271.577 623.894 272.331L490.019 272.336C489.472 272.336 488.946 272.201 488.49 271.957C487.802 271.599 487.254 271.002 486.956 270.281C486.826 269.988 486.75 269.663 486.717 269.332L486.707 269.181V260.223C486.728 259.838 486.815 259.464 486.961 259.123C487.466 257.919 488.648 257.073 490.025 257.073H627.283C627.489 257.073 627.679 257.09 627.869 257.127C628.08 257.165 628.286 257.22 628.476 257.296C629.116 257.54 629.658 257.984 630.038 258.537C630.401 259.063 630.607 259.703 630.607 260.392V260.397Z" fill="#A8B6D4"/>
<path d="M563.206 272.331H489.667C489.174 272.331 488.713 272.195 488.301 271.957C487.433 271.447 486.815 270.471 486.717 269.332C486.712 269.284 486.707 269.235 486.707 269.186C486.707 269.126 486.707 269.072 486.707 269.018V260.402C486.707 260.343 486.707 260.289 486.707 260.234C486.788 258.488 488.089 257.084 489.667 257.084H554.173C555.176 261.454 557.475 267.451 562.75 271.968C562.897 272.092 563.049 272.217 563.2 272.342L563.206 272.331Z" fill="#27458B"/>
<path d="M613.907 257.073H612.345V272.331H613.907V257.073Z" fill="#27458B"/>
<path d="M608.626 257.073H607.064V272.331H608.626V257.073Z" fill="#27458B"/>
<path d="M602.293 257.073H600.731V272.331H602.293V257.073Z" fill="#27458B"/>
<path d="M592.587 257.073H591.026V272.331H592.587V257.073Z" fill="#27458B"/>
<path d="M582.323 257.073H580.762V272.331H582.323V257.073Z" fill="#27458B"/>
<path d="M566.589 257.073H565.027V272.331H566.589V257.073Z" fill="#27458B"/>
<path d="M551.852 257.073H550.29V272.331H551.852V257.073Z" fill="#27458B"/>
<path d="M538.698 257.073H537.136V272.331H538.698V257.073Z" fill="#27458B"/>
<path d="M618.933 257.073H617.371V272.331H618.933V257.073Z" fill="#27458B"/>
<path d="M622.256 257.073H620.695V272.331H622.256V257.073Z" fill="#27458B"/>
<path d="M625.461 257.073V270.054C624.951 270.818 624.431 271.577 623.899 272.331V257.079H625.461V257.073Z" fill="#27458B"/>
<path d="M627.868 257.127V266.388C627.359 267.191 626.838 267.988 626.307 268.779V257.073H627.283C627.489 257.073 627.678 257.09 627.868 257.127Z" fill="#27458B"/>
<path d="M630.037 258.543V262.935C629.527 263.775 629.012 264.604 628.476 265.434V257.301C629.115 257.545 629.658 257.99 630.037 258.543Z" fill="#27458B"/>
<path d="M640.882 242.819C640.497 243.648 640.101 244.467 639.694 245.286C639.494 245.703 639.293 246.115 639.087 246.527C638.577 247.563 638.057 248.588 637.525 249.607C637.249 250.155 636.962 250.702 636.674 251.245C636.165 252.226 635.639 253.196 635.113 254.162C634.581 255.138 634.039 256.108 633.491 257.068H501.243C499.47 257.068 498.012 255.669 497.925 253.918C497.925 253.863 497.925 253.804 497.925 253.75V245.134C497.925 245.074 497.925 245.02 497.925 244.96C498.006 243.345 499.259 242.027 500.847 241.832C500.977 241.816 501.108 241.805 501.243 241.805H620.864H620.874H638.501C638.702 241.805 638.897 241.827 639.087 241.859C639.293 241.897 639.499 241.957 639.694 242.027C639.754 242.054 639.808 242.07 639.868 242.103C639.911 242.119 639.949 242.141 639.992 242.168C640.106 242.222 640.22 242.287 640.329 242.363C640.372 242.39 640.421 242.423 640.464 242.461C640.48 242.472 640.491 242.483 640.508 242.493C640.546 242.521 640.578 242.548 640.611 242.575C640.703 242.651 640.79 242.727 640.871 242.813L640.882 242.819Z" fill="#A8B6D4"/>
<path d="M574.424 257.073H500.885C499.307 257.073 498.006 255.669 497.925 253.923C497.925 253.869 497.925 253.809 497.925 253.755V245.139C497.925 245.085 497.925 245.026 497.925 244.966C498.001 243.35 499.118 242.027 500.533 241.837C500.647 241.821 500.766 241.816 500.885 241.816H565.391C565.391 241.816 565.391 241.832 565.396 241.837C566.432 246.327 568.829 252.524 574.419 257.073H574.424Z" fill="#27458B"/>
<path d="M625.125 241.816H623.563V257.073H625.125V241.816Z" fill="#27458B"/>
<path d="M619.844 241.816H618.282V257.073H619.844V241.816Z" fill="#27458B"/>
<path d="M613.511 241.816H611.95V257.073H613.511V241.816Z" fill="#27458B"/>
<path d="M603.806 241.816H602.244V257.073H603.806V241.816Z" fill="#27458B"/>
<path d="M593.542 241.816H591.98V257.073H593.542V241.816Z" fill="#27458B"/>
<path d="M577.807 241.816H576.246V257.073H577.807V241.816Z" fill="#27458B"/>
<path d="M563.07 241.816H561.508V257.073H563.07V241.816Z" fill="#27458B"/>
<path d="M549.916 241.816H548.354V257.073H549.916V241.816Z" fill="#27458B"/>
<path d="M630.151 241.816H628.589V257.073H630.151V241.816Z" fill="#27458B"/>
<path d="M633.475 241.816H631.913V257.073H633.475V241.816Z" fill="#27458B"/>
<path d="M636.679 241.816V251.245C636.17 252.226 635.644 253.197 635.118 254.162V241.81H636.679V241.816Z" fill="#27458B"/>
<path d="M639.092 241.865V246.527C638.582 247.563 638.062 248.588 637.53 249.607V241.81H638.506C638.707 241.81 638.902 241.832 639.092 241.865Z" fill="#27458B"/>
<path d="M640.881 242.819C640.496 243.648 640.1 244.467 639.694 245.286V242.033C639.753 242.06 639.808 242.076 639.867 242.108C639.911 242.125 639.949 242.146 639.992 242.174C640.106 242.228 640.22 242.293 640.328 242.369C640.372 242.396 640.42 242.428 640.464 242.466C640.48 242.477 640.491 242.488 640.507 242.499C640.545 242.526 640.578 242.553 640.61 242.58C640.702 242.656 640.789 242.732 640.87 242.819H640.881Z" fill="#27458B"/>
<path d="M623.802 229.898V238.514C623.802 239.202 623.591 239.837 623.233 240.368C622.853 240.926 622.311 241.366 621.677 241.61C621.482 241.686 621.276 241.745 621.07 241.778C621.004 241.789 620.939 241.799 620.874 241.805C620.826 241.81 620.771 241.816 620.717 241.821C620.69 241.821 620.668 241.821 620.641 241.827C620.587 241.827 620.533 241.827 620.479 241.827H483.215C481.447 241.827 479.989 240.422 479.896 238.676C479.896 238.617 479.896 238.562 479.896 238.503V229.887C479.896 229.833 479.896 229.773 479.896 229.719C479.989 227.973 481.442 226.569 483.215 226.569H620.479C620.538 226.569 620.598 226.569 620.657 226.569C620.798 226.574 620.934 226.591 621.064 226.618C621.276 226.656 621.476 226.71 621.671 226.786C621.769 226.824 621.867 226.867 621.959 226.916C622.018 226.943 622.073 226.976 622.127 227.008C622.132 227.008 622.138 227.014 622.143 227.019C622.203 227.052 622.257 227.084 622.311 227.122C622.322 227.127 622.333 227.133 622.338 227.138C622.393 227.171 622.441 227.209 622.49 227.247C622.609 227.333 622.718 227.431 622.821 227.534C622.853 227.567 622.886 227.599 622.913 227.632C622.918 227.637 622.924 227.643 622.929 227.648C622.951 227.67 622.967 227.686 622.989 227.713C622.989 227.713 622.994 227.724 623 227.724C623.032 227.762 623.065 227.805 623.097 227.843C623.141 227.903 623.19 227.962 623.227 228.022C623.585 228.553 623.797 229.188 623.797 229.876L623.802 229.898Z" fill="#A8B6D4"/>
<path d="M556.401 241.838H482.862C481.284 241.838 479.983 240.433 479.902 238.687C479.902 238.628 479.902 238.574 479.902 238.514V229.898C479.902 229.844 479.902 229.784 479.902 229.73C479.983 227.984 481.284 226.58 482.862 226.58H547.368C547.395 226.694 547.422 226.813 547.455 226.933C548.523 231.384 550.936 237.381 556.374 241.816C556.385 241.821 556.396 241.832 556.401 241.838Z" fill="#27458B"/>
<path d="M607.103 226.58H605.541V241.837H607.103V226.58Z" fill="#27458B"/>
<path d="M601.821 226.58H600.26V241.837H601.821V226.58Z" fill="#27458B"/>
<path d="M595.488 226.58H593.927V241.837H595.488V226.58Z" fill="#27458B"/>
<path d="M585.783 226.58H584.222V241.837H585.783V226.58Z" fill="#27458B"/>
<path d="M575.519 226.58H573.958V241.837H575.519V226.58Z" fill="#27458B"/>
<path d="M559.785 226.58H558.223V241.837H559.785V226.58Z" fill="#27458B"/>
<path d="M545.047 226.58H543.486V241.837H545.047V226.58Z" fill="#27458B"/>
<path d="M531.894 226.58H530.332V241.837H531.894V226.58Z" fill="#27458B"/>
<path d="M612.128 226.58H610.567V241.837H612.128V226.58Z" fill="#27458B"/>
<path d="M615.452 226.58H613.891V241.837H615.452V226.58Z" fill="#27458B"/>
<path d="M618.657 226.58H617.095V241.837H618.657V226.58Z" fill="#27458B"/>
<path d="M621.07 226.629V241.783C620.88 241.816 620.685 241.837 620.484 241.837H619.508V226.58H620.484C620.685 226.58 620.88 226.596 621.07 226.634V226.629Z" fill="#27458B"/>
<path d="M623.233 228.044V240.368C622.853 240.927 622.311 241.366 621.677 241.61V226.797C622.311 227.041 622.859 227.48 623.233 228.038V228.044Z" fill="#27458B"/>
<path d="M633.898 214.993V223.609C633.898 224.297 633.686 224.932 633.329 225.463C632.949 226.021 632.407 226.461 631.767 226.705C631.572 226.78 631.371 226.84 631.16 226.873C630.97 226.905 630.775 226.927 630.574 226.927H493.311C492.779 226.927 492.275 226.802 491.825 226.574C490.827 226.076 490.106 225.078 489.998 223.912C489.998 223.869 489.992 223.82 489.987 223.777C489.987 223.722 489.987 223.663 489.987 223.609V214.993C489.987 214.939 489.987 214.879 489.987 214.825C490.068 213.209 491.321 211.886 492.909 211.696C493.039 211.68 493.17 211.675 493.3 211.675H630.563C630.764 211.675 630.959 211.691 631.149 211.729C631.36 211.767 631.561 211.821 631.756 211.897C632.396 212.141 632.938 212.58 633.318 213.139C633.676 213.67 633.887 214.304 633.887 214.993H633.898Z" fill="#A8B6D4"/>
<path d="M566.491 226.932H492.958C492.481 226.932 492.031 226.808 491.635 226.58C490.74 226.081 490.106 225.083 490.008 223.918C490.008 223.874 490.003 223.825 489.998 223.782C489.998 223.728 489.998 223.668 489.998 223.614V214.998C489.998 214.944 489.998 214.885 489.998 214.83C490.068 213.215 491.19 211.892 492.606 211.702C492.719 211.686 492.839 211.68 492.958 211.68H557.464C557.464 211.68 557.464 211.696 557.464 211.702C558.472 216.077 560.777 222.074 566.068 226.585C566.204 226.705 566.345 226.824 566.491 226.938V226.932Z" fill="#27458B"/>
<path d="M617.193 211.669H615.631V226.927H617.193V211.669Z" fill="#27458B"/>
<path d="M611.912 211.669H610.35V226.927H611.912V211.669Z" fill="#27458B"/>
<path d="M605.584 211.669H604.022V226.927H605.584V211.669Z" fill="#27458B"/>
<path d="M595.874 211.669H594.312V226.927H595.874V211.669Z" fill="#27458B"/>
<path d="M585.609 211.669H584.048V226.927H585.609V211.669Z" fill="#27458B"/>
<path d="M569.875 211.669H568.313V226.927H569.875V211.669Z" fill="#27458B"/>
<path d="M555.143 211.669H553.582V226.927H555.143V211.669Z" fill="#27458B"/>
<path d="M541.984 211.669H540.422V226.927H541.984V211.669Z" fill="#27458B"/>
<path d="M622.225 211.669H620.663V226.927H622.225V211.669Z" fill="#27458B"/>
<path d="M625.543 211.669H623.981V226.927H625.543V211.669Z" fill="#27458B"/>
<path d="M628.747 211.669H627.186V226.927H628.747V211.669Z" fill="#27458B"/>
<path d="M631.16 211.723V226.878C630.97 226.911 630.775 226.932 630.574 226.932H629.598V211.675H630.574C630.775 211.675 630.97 211.691 631.16 211.729V211.723Z" fill="#27458B"/>
<path d="M633.329 213.139V225.463C632.949 226.021 632.407 226.461 631.767 226.705V211.892C632.407 212.136 632.949 212.575 633.329 213.133V213.139Z" fill="#27458B"/>
<path d="M623.802 199.757V208.373C623.802 209.061 623.591 209.696 623.233 210.227C622.853 210.786 622.311 211.225 621.677 211.469C621.482 211.545 621.276 211.604 621.07 211.637C621.004 211.648 620.939 211.658 620.874 211.664C620.842 211.664 620.804 211.669 620.766 211.675C620.733 211.675 620.695 211.675 620.657 211.68C620.598 211.68 620.538 211.68 620.479 211.68H483.215C481.447 211.68 479.989 210.276 479.896 208.53C479.896 208.476 479.896 208.416 479.896 208.356V199.741C479.896 199.681 479.896 199.627 479.896 199.573C479.989 197.827 481.442 196.423 483.215 196.423H620.479C620.679 196.423 620.874 196.439 621.064 196.477C621.276 196.515 621.476 196.569 621.671 196.65C622.306 196.894 622.853 197.334 623.227 197.892C623.585 198.423 623.797 199.058 623.797 199.746L623.802 199.757Z" fill="#A8B6D4"/>
<path d="M556.401 211.696H482.862C481.284 211.696 479.983 210.292 479.902 208.546C479.902 208.492 479.902 208.432 479.902 208.373V199.757C479.902 199.697 479.902 199.643 479.902 199.589C479.983 197.843 481.284 196.439 482.862 196.439H547.368C548.398 200.923 550.789 207.12 556.369 211.675C556.379 211.68 556.39 211.691 556.396 211.696H556.401Z" fill="#27458B"/>
<path d="M607.103 196.433H605.541V211.691H607.103V196.433Z" fill="#27458B"/>
<path d="M601.821 196.433H600.26V211.691H601.821V196.433Z" fill="#27458B"/>
<path d="M595.488 196.433H593.927V211.691H595.488V196.433Z" fill="#27458B"/>
<path d="M585.783 196.433H584.222V211.691H585.783V196.433Z" fill="#27458B"/>
<path d="M575.519 196.433H573.958V211.691H575.519V196.433Z" fill="#27458B"/>
<path d="M559.785 196.433H558.223V211.691H559.785V196.433Z" fill="#27458B"/>
<path d="M545.047 196.433H543.486V211.691H545.047V196.433Z" fill="#27458B"/>
<path d="M531.894 196.433H530.332V211.691H531.894V196.433Z" fill="#27458B"/>
<path d="M612.128 196.433H610.567V211.691H612.128V196.433Z" fill="#27458B"/>
<path d="M615.452 196.433H613.891V211.691H615.452V196.433Z" fill="#27458B"/>
<path d="M618.657 196.433H617.095V211.691H618.657V196.433Z" fill="#27458B"/>
<path d="M621.07 196.488V211.642C620.88 211.675 620.685 211.696 620.484 211.696H619.508V196.439H620.484C620.685 196.439 620.88 196.455 621.07 196.493V196.488Z" fill="#27458B"/>
<path d="M623.233 197.903V210.227C622.853 210.786 622.311 211.225 621.677 211.469V196.656C622.311 196.9 622.859 197.339 623.233 197.897V197.903Z" fill="#27458B"/>
<path d="M574.213 168.033L507.457 93.5236C500.262 85.499 486.961 90.5849 486.961 101.364V289.107C486.961 289.107 574.213 301.209 574.213 289.107V168.033Z" fill="#686868"/>
<path d="M457.227 286.499L486.462 282.763C486.462 282.763 484.017 264.745 488.181 240.401C491.255 222.421 497.93 200.993 511.859 180.829C535.607 146.442 609.477 124.7 609.477 124.7L609.298 120.384L606.603 120.205C606.603 120.205 607.725 119.349 609.233 118.823L608.81 108.618C606.603 108.678 603.453 108.938 600.362 109.8C602.092 109.291 605.784 108.282 608.783 107.924L608.56 102.557C500.559 109.914 467.995 176.681 459.032 227.681C453.29 260.321 457.221 286.504 457.221 286.504L457.227 286.499Z" fill="#4563AA"/>
<path d="M328.421 282.313L457.227 286.499C457.075 266.692 461.391 246.023 465.745 230.31C470.099 214.597 474.49 203.835 474.49 203.835C509.43 118.075 608.566 102.551 608.566 102.551L496.135 61.8428C442.891 68.0672 406.482 95.2695 381.606 128.561C332.884 193.76 328.427 282.313 328.427 282.313H328.421Z" fill="#4563AA"/>
<path opacity="0.5" d="M328.421 282.313L457.227 286.499L486.462 282.763C486.462 282.763 484.017 264.745 488.181 240.401C481.913 236.968 474.485 233.591 465.739 230.31C463.44 229.448 461.207 228.57 459.032 227.675C375.712 193.316 380.901 134.221 381.601 128.561C332.878 193.76 328.421 282.313 328.421 282.313Z" fill="#27458B"/>
<path d="M495.658 68.425L495.316 68.4359C494.346 68.4522 471.329 69.054 442.332 84.2628C425.34 93.1766 409.854 105.289 396.31 120.27C391.067 126.067 386.111 132.302 381.459 138.949C376.222 146.432 371.369 154.434 366.907 162.942C364.553 167.431 362.309 172.051 360.178 176.811C359.994 177.234 359.798 177.657 359.614 178.085C357.998 181.74 356.453 185.47 354.973 189.282C354.398 190.708 344.958 214.5 339.835 238.752C339.292 241.317 338.799 243.887 338.371 246.441C338.078 248.17 337.812 249.894 337.584 251.592C336.999 255.967 336.641 260.223 336.592 264.23C336.565 266.339 336.619 268.378 336.776 270.325V270.357L337.79 280.464L338.007 282.633L338.327 285.853L338.658 289.128L338.772 290.294L338.924 291.79L420.514 286.835L427.248 286.428L428.024 286.385L432.443 286.114L436.851 285.848H436.872L453.269 284.85L452.775 282.665C452.71 282.378 447.239 257.301 453.702 225.403C453.854 224.639 454.017 223.874 454.19 223.099C454.7 220.746 455.28 218.36 455.936 215.942C456.44 214.077 456.983 212.195 457.579 210.303C458.213 208.281 458.891 206.269 459.612 204.284C459.699 204.046 459.786 203.797 459.878 203.558C463.158 194.628 467.279 186.132 472.218 178.096C472.479 177.668 472.744 177.245 473.015 176.822C476.03 172.029 479.338 167.399 482.938 162.952C484.234 161.342 485.573 159.753 486.955 158.192C489.244 155.589 491.64 153.057 494.134 150.585C497.246 147.505 500.527 144.528 503.959 141.655C503.975 141.644 503.986 141.628 504.002 141.617C512.645 134.4 522.291 127.845 532.918 121.962C533.813 121.463 534.718 120.97 535.629 120.487C535.634 120.487 535.64 120.476 535.651 120.476C535.656 120.476 535.667 120.466 535.678 120.466C549.244 113.216 564.344 107.046 580.886 101.998L586.444 100.301L495.652 68.4413L495.658 68.425ZM564.328 103.522C552.096 108.027 540.747 113.205 530.315 119.034C515.426 127.357 502.408 137.014 491.374 147.939C489.867 149.435 488.387 150.954 486.961 152.499C483.822 155.866 480.861 159.347 478.08 162.936C467.837 176.15 460.013 190.832 454.722 206.789C454.526 207.359 454.342 207.934 454.163 208.508C454.071 208.779 453.984 209.05 453.903 209.322C452.764 212.971 451.788 216.571 450.97 220.09C450.677 221.326 450.406 222.546 450.156 223.76C449.863 225.176 449.592 226.564 449.338 227.946C446.946 241.198 446.551 252.898 446.773 261.395C447.022 270.948 448.047 277.953 448.638 281.299L431.911 282.313L427.514 282.578L426.576 282.638L419.983 283.039L395.952 284.503H395.925L342.356 287.756L341.857 282.746L340.583 269.994C340.436 268.205 340.382 266.28 340.415 264.225C340.518 257.155 341.651 248.566 343.771 238.747C345.045 232.821 346.683 226.444 348.667 219.672C353.4 203.536 358.47 190.8 358.524 190.675C360.194 186.381 361.945 182.179 363.784 178.085C363.952 177.711 364.12 177.337 364.293 176.963C366.478 172.143 368.793 167.464 371.223 162.936C374.617 156.592 378.244 150.531 382.083 144.783C387.331 136.921 392.987 129.629 399.032 122.933C412.246 108.293 427.346 96.4515 443.916 87.7383C461.89 78.2769 477.743 74.5845 486.955 73.153C491.792 72.3994 496.737 72.8494 501.351 74.4706L564.273 96.5491C567.554 97.6985 567.581 102.323 564.317 103.527L564.328 103.522Z" fill="#27458B"/>
<path d="M395.074 157.747C395.855 176.6 407.371 187.536 426.224 186.755C445.076 185.974 464.129 173.78 463.348 154.922C462.567 136.07 451.664 125.226 432.811 126.007C413.959 126.788 394.299 138.895 395.08 157.747H395.074Z" fill="#27458B"/>
<path d="M574.218 168.033V319.692C571.805 321.172 569.349 322.593 566.838 323.948C564.919 324.989 562.972 325.998 560.999 326.968C558.011 328.438 554.959 329.826 551.852 331.122C551.337 331.344 550.816 331.561 550.29 331.772C549.385 332.141 548.474 332.504 547.552 332.857C546.224 333.372 544.89 333.871 543.545 334.359C540.563 335.438 537.521 336.435 534.436 337.362C533.341 337.693 532.24 338.013 531.134 338.317C526.878 339.515 522.524 340.572 518.067 341.483C514.651 342.372 511.176 342.991 507.673 343.343C499.584 344.585 491.185 345.392 482.488 345.75C481.067 345.815 479.641 345.859 478.205 345.891C476.112 345.946 474.003 345.973 471.872 345.973C469.313 345.973 466.743 345.946 464.156 345.886C442.441 345.403 419.983 342.877 398.29 338.252C396.652 337.905 395.015 337.547 393.388 337.173C374.129 332.765 355.575 326.687 338.783 318.895C338.355 318.7 337.932 318.499 337.509 318.299C333.285 316.309 329.17 314.205 325.19 311.987V168.038C325.19 165.235 327.483 162.942 330.281 162.942H569.11C569.3 162.942 569.49 162.953 569.674 162.969C572.217 163.251 574.212 165.42 574.212 168.033H574.218Z" fill="#6D89CF"/>
<path d="M346.911 176.811H342.665C342.318 176.811 342.031 177.099 342.031 177.446C342.031 177.793 342.318 178.085 342.665 178.085H346.911C347.263 178.085 347.545 177.798 347.545 177.446C347.545 177.093 347.263 176.811 346.911 176.811ZM355.401 176.811H351.156C350.809 176.811 350.522 177.099 350.522 177.446C350.522 177.793 350.809 178.085 351.156 178.085H355.401C355.754 178.085 356.041 177.798 356.041 177.446C356.041 177.093 355.754 176.811 355.401 176.811ZM364.304 176.963C364.191 176.865 364.05 176.811 363.898 176.811H359.652C359.3 176.811 359.013 177.099 359.013 177.446C359.013 177.793 359.289 178.074 359.631 178.08C359.642 178.08 359.647 178.08 359.658 178.08H363.903C364.25 178.08 364.538 177.793 364.538 177.44C364.538 177.245 364.451 177.071 364.31 176.958L364.304 176.963ZM372.389 176.811H368.143C367.791 176.811 367.509 177.099 367.509 177.446C367.509 177.793 367.791 178.085 368.143 178.085H372.389C372.736 178.085 373.023 177.798 373.023 177.446C373.023 177.093 372.736 176.811 372.389 176.811ZM380.88 176.811H376.634C376.282 176.811 376 177.099 376 177.446C376 177.793 376.282 178.085 376.634 178.085H380.88C381.232 178.085 381.514 177.798 381.514 177.446C381.514 177.093 381.232 176.811 380.88 176.811ZM389.37 176.811H385.125C384.778 176.811 384.491 177.099 384.491 177.446C384.491 177.793 384.778 178.085 385.125 178.085H389.37C389.723 178.085 390.005 177.798 390.005 177.446C390.005 177.093 389.723 176.811 389.37 176.811ZM397.861 176.811H393.616C393.269 176.811 392.981 177.099 392.981 177.446C392.981 177.793 393.269 178.085 393.616 178.085H397.861C398.214 178.085 398.501 177.798 398.501 177.446C398.501 177.093 398.214 176.811 397.861 176.811ZM406.358 176.811H402.107C401.874 176.811 401.668 176.936 401.565 177.126C401.505 177.223 401.472 177.332 401.472 177.451C401.472 177.803 401.76 178.091 402.107 178.091H406.358C406.705 178.091 406.992 177.803 406.992 177.451C406.992 177.099 406.705 176.817 406.358 176.817V176.811ZM414.848 176.811H410.603C410.251 176.811 409.969 177.099 409.969 177.446C409.969 177.793 410.251 178.085 410.603 178.085H414.848C415.195 178.085 415.483 177.798 415.483 177.446C415.483 177.093 415.195 176.811 414.848 176.811ZM423.339 176.811H419.094C418.741 176.811 418.46 177.099 418.46 177.446C418.46 177.793 418.741 178.085 419.094 178.085H423.339C423.692 178.085 423.974 177.798 423.974 177.446C423.974 177.093 423.692 176.811 423.339 176.811ZM431.83 176.811H427.585C427.238 176.811 426.95 177.099 426.95 177.446C426.95 177.793 427.238 178.085 427.585 178.085H431.83C432.183 178.085 432.465 177.798 432.465 177.446C432.465 177.093 432.183 176.811 431.83 176.811ZM440.321 176.811H436.076C435.729 176.811 435.441 177.099 435.441 177.446C435.441 177.793 435.729 178.085 436.076 178.085H440.321C440.674 178.085 440.961 177.798 440.961 177.446C440.961 177.093 440.674 176.811 440.321 176.811ZM448.817 176.811H444.567C444.22 176.811 443.932 177.099 443.932 177.446C443.932 177.793 444.22 178.085 444.567 178.085H448.817C449.164 178.085 449.452 177.798 449.452 177.446C449.452 177.093 449.164 176.811 448.817 176.811ZM457.308 176.811H453.063C452.732 176.811 452.456 177.066 452.428 177.391C452.428 177.391 452.428 177.429 452.428 177.451C452.428 177.803 452.716 178.091 453.068 178.091H457.314C457.661 178.091 457.948 177.803 457.948 177.451C457.948 177.099 457.661 176.817 457.314 176.817L457.308 176.811ZM465.799 176.811H461.554C461.201 176.811 460.919 177.099 460.919 177.446C460.919 177.793 461.201 178.085 461.554 178.085H465.799C466.146 178.085 466.434 177.798 466.434 177.446C466.434 177.093 466.146 176.811 465.799 176.811ZM474.29 176.811H470.045C469.692 176.811 469.41 177.099 469.41 177.446C469.41 177.793 469.692 178.085 470.045 178.085H474.29C474.642 178.085 474.924 177.798 474.924 177.446C474.924 177.093 474.642 176.811 474.29 176.811ZM482.781 176.811H478.535C478.188 176.811 477.901 177.099 477.901 177.446C477.901 177.793 478.188 178.085 478.535 178.085H482.781C483.133 178.085 483.415 177.798 483.415 177.446C483.415 177.093 483.133 176.811 482.781 176.811ZM491.272 176.811H487.026C487.026 176.811 486.983 176.811 486.956 176.822C486.641 176.855 486.392 177.126 486.392 177.451C486.392 177.776 486.641 178.047 486.956 178.085C486.983 178.096 486.999 178.096 487.026 178.096H491.272C491.624 178.096 491.912 177.809 491.912 177.456C491.912 177.104 491.624 176.822 491.272 176.822V176.811ZM499.768 176.811H495.523C495.17 176.811 494.883 177.099 494.883 177.446C494.883 177.793 495.17 178.085 495.523 178.085H499.768C500.115 178.085 500.402 177.798 500.402 177.446C500.402 177.093 500.115 176.811 499.768 176.811ZM508.259 176.811H504.014C503.661 176.811 503.379 177.099 503.379 177.446C503.379 177.793 503.661 178.085 504.014 178.085H508.259C508.606 178.085 508.893 177.798 508.893 177.446C508.893 177.093 508.606 176.811 508.259 176.811ZM516.75 176.811H512.504C512.152 176.811 511.87 177.099 511.87 177.446C511.87 177.793 512.152 178.085 512.504 178.085H516.75C517.102 178.085 517.384 177.798 517.384 177.446C517.384 177.093 517.102 176.811 516.75 176.811ZM525.241 176.811H520.995C520.648 176.811 520.361 177.099 520.361 177.446C520.361 177.793 520.648 178.085 520.995 178.085H525.241C525.593 178.085 525.875 177.798 525.875 177.446C525.875 177.093 525.593 176.811 525.241 176.811ZM533.732 176.811H529.486C529.139 176.811 528.852 177.099 528.852 177.446C528.852 177.793 529.139 178.085 529.486 178.085H533.732C534.084 178.085 534.371 177.798 534.371 177.446C534.371 177.093 534.084 176.811 533.732 176.811ZM542.228 176.811H537.982C537.63 176.811 537.343 177.099 537.343 177.446C537.343 177.793 537.63 178.085 537.982 178.085H542.228C542.575 178.085 542.862 177.798 542.862 177.446C542.862 177.093 542.575 176.811 542.228 176.811ZM550.719 176.811H546.473C546.121 176.811 545.839 177.099 545.839 177.446C545.839 177.793 546.121 178.085 546.473 178.085H550.719C551.066 178.085 551.353 177.798 551.353 177.446C551.353 177.093 551.066 176.811 550.719 176.811ZM554.91 178.828C554.699 178.546 554.297 178.492 554.021 178.709C553.739 178.92 553.685 179.322 553.896 179.598C554.406 180.265 554.671 181.057 554.671 181.892V183.258C554.671 183.61 554.953 183.898 555.306 183.898C555.658 183.898 555.94 183.61 555.94 183.258V181.892C555.94 180.775 555.582 179.717 554.905 178.828H554.91ZM339.379 178.758C339.092 178.552 338.696 178.611 338.485 178.893C337.845 179.772 337.503 180.807 337.503 181.892V183.328C337.503 183.681 337.785 183.968 338.138 183.968C338.49 183.968 338.772 183.681 338.772 183.328V181.892C338.772 181.078 339.027 180.303 339.51 179.652C339.716 179.365 339.661 178.964 339.374 178.758H339.379ZM555.311 186.869C554.959 186.869 554.677 187.156 554.677 187.509V191.754C554.677 192.101 554.959 192.389 555.311 192.389C555.664 192.389 555.946 192.101 555.946 191.754V187.509C555.946 187.156 555.664 186.869 555.311 186.869ZM338.143 186.945C337.791 186.945 337.509 187.232 337.509 187.579V191.83C337.509 192.177 337.791 192.465 338.143 192.465C338.496 192.465 338.778 192.177 338.778 191.83V187.579C338.778 187.232 338.49 186.945 338.143 186.945ZM555.311 195.365C554.959 195.365 554.677 195.647 554.677 196V200.245C554.677 200.592 554.959 200.879 555.311 200.879C555.664 200.879 555.946 200.592 555.946 200.245V196C555.946 195.647 555.664 195.365 555.311 195.365ZM338.143 195.441C337.791 195.441 337.509 195.723 337.509 196.076V200.321C337.509 200.668 337.791 200.955 338.143 200.955C338.496 200.955 338.778 200.668 338.778 200.321V196.076C338.778 195.723 338.49 195.441 338.143 195.441ZM555.311 203.856C554.959 203.856 554.677 204.138 554.677 204.491V208.736C554.677 209.088 554.959 209.37 555.311 209.37C555.664 209.37 555.946 209.088 555.946 208.736V204.491C555.946 204.138 555.664 203.856 555.311 203.856ZM338.143 203.932C337.791 203.932 337.509 204.214 337.509 204.566V208.812C337.509 209.164 337.791 209.446 338.143 209.446C338.496 209.446 338.778 209.164 338.778 208.812V204.566C338.778 204.214 338.49 203.932 338.143 203.932ZM555.311 212.347C555.246 212.347 555.192 212.358 555.138 212.374C554.872 212.45 554.677 212.694 554.677 212.987V217.232C554.677 217.525 554.872 217.769 555.138 217.845C555.192 217.861 555.252 217.872 555.311 217.872C555.664 217.872 555.946 217.59 555.946 217.238V212.992C555.946 212.645 555.664 212.358 555.311 212.358V212.347ZM338.143 212.423C337.791 212.423 337.509 212.705 337.509 213.057V217.303C337.509 217.655 337.791 217.937 338.143 217.937C338.496 217.937 338.778 217.655 338.778 217.303V213.057C338.778 212.705 338.49 212.423 338.143 212.423ZM555.311 220.838C555.246 220.838 555.192 220.849 555.138 220.865C554.872 220.941 554.677 221.185 554.677 221.478V225.723C554.677 226.016 554.872 226.265 555.138 226.341C555.192 226.358 555.252 226.368 555.311 226.368C555.664 226.368 555.946 226.081 555.946 225.729V221.483C555.946 221.136 555.664 220.849 555.311 220.849V220.838ZM338.143 220.914C337.791 220.914 337.509 221.201 337.509 221.548V225.794C337.509 225.945 337.558 226.076 337.644 226.184C337.758 226.336 337.937 226.433 338.143 226.433C338.49 226.433 338.778 226.146 338.778 225.794V221.548C338.778 221.201 338.49 220.914 338.143 220.914ZM555.311 229.329C554.959 229.329 554.677 229.616 554.677 229.963V234.214C554.677 234.561 554.959 234.848 555.311 234.848C555.664 234.848 555.946 234.561 555.946 234.214V229.963C555.946 229.616 555.664 229.329 555.311 229.329ZM338.143 229.405C337.791 229.405 337.509 229.692 337.509 230.039V234.29C337.509 234.637 337.791 234.924 338.143 234.924C338.496 234.924 338.778 234.637 338.778 234.29V230.039C338.778 229.692 338.49 229.405 338.143 229.405ZM555.311 237.825C554.959 237.825 554.677 238.107 554.677 238.459V242.705C554.677 243.052 554.959 243.339 555.311 243.339C555.664 243.339 555.946 243.052 555.946 242.705V238.459C555.946 238.107 555.664 237.825 555.311 237.825ZM338.143 237.896C337.791 237.896 337.509 238.183 337.509 238.535V242.781C337.509 243.128 337.791 243.415 338.143 243.415C338.496 243.415 338.778 243.128 338.778 242.781V238.535C338.778 238.183 338.49 237.896 338.143 237.896ZM555.311 246.316C554.959 246.316 554.677 246.598 554.677 246.95V251.196C554.677 251.548 554.959 251.83 555.311 251.83C555.664 251.83 555.946 251.548 555.946 251.196V246.95C555.946 246.598 555.664 246.316 555.311 246.316ZM338.376 246.435C338.306 246.408 338.225 246.392 338.143 246.392C337.791 246.392 337.509 246.674 337.509 247.026V251.272C337.509 251.386 337.536 251.494 337.59 251.586C337.699 251.776 337.905 251.906 338.143 251.906C338.49 251.906 338.778 251.624 338.778 251.272V247.026C338.778 246.755 338.61 246.527 338.376 246.435ZM555.311 254.807C554.959 254.807 554.677 255.089 554.677 255.441V259.687C554.677 259.963 554.845 260.185 555.078 260.278C555.149 260.305 555.23 260.321 555.306 260.321C555.658 260.321 555.94 260.039 555.94 259.687V255.441C555.94 255.089 555.658 254.807 555.306 254.807H555.311ZM338.143 254.883C337.791 254.883 337.509 255.165 337.509 255.517V259.763C337.509 260.115 337.791 260.397 338.143 260.397C338.496 260.397 338.778 260.115 338.778 259.763V255.517C338.778 255.165 338.49 254.883 338.143 254.883ZM555.311 263.298C554.959 263.298 554.677 263.585 554.677 263.932V268.178C554.677 268.53 554.959 268.817 555.311 268.817C555.664 268.817 555.946 268.53 555.946 268.178V263.932C555.946 263.585 555.664 263.298 555.311 263.298ZM338.143 263.374C337.791 263.374 337.509 263.661 337.509 264.008V268.253C337.509 268.606 337.791 268.893 338.143 268.893C338.496 268.893 338.778 268.606 338.778 268.253V264.008C338.778 263.661 338.49 263.374 338.143 263.374ZM555.94 272.336C555.918 272.184 555.843 272.049 555.734 271.957C555.62 271.854 555.474 271.789 555.311 271.789C555.149 271.789 554.997 271.854 554.888 271.957C554.78 272.049 554.704 272.184 554.682 272.336C554.682 272.363 554.671 272.401 554.671 272.428V276.679C554.671 277.026 554.953 277.314 555.306 277.314C555.658 277.314 555.94 277.026 555.94 276.679V272.428C555.94 272.401 555.94 272.369 555.929 272.336H555.94ZM338.143 271.865C337.791 271.865 337.509 272.152 337.509 272.499V276.75C337.509 277.097 337.791 277.384 338.143 277.384C338.496 277.384 338.778 277.097 338.778 276.75V272.499C338.778 272.152 338.49 271.865 338.143 271.865ZM555.311 280.279C554.959 280.279 554.677 280.567 554.677 280.919V285.165C554.677 285.512 554.959 285.799 555.311 285.799C555.664 285.799 555.946 285.512 555.946 285.165V280.919C555.946 280.567 555.664 280.279 555.311 280.279ZM338.143 280.355C338.013 280.355 337.899 280.393 337.796 280.453C337.623 280.567 337.503 280.767 337.503 280.995V285.241C337.503 285.588 337.785 285.875 338.138 285.875C338.203 285.875 338.273 285.864 338.328 285.842C338.588 285.761 338.772 285.523 338.772 285.241V280.995C338.772 280.643 338.485 280.355 338.138 280.355H338.143ZM555.311 288.776C554.959 288.776 554.677 289.058 554.677 289.41V293.656C554.677 294.008 554.959 294.29 555.311 294.29C555.664 294.29 555.946 294.008 555.946 293.656V289.41C555.946 289.058 555.664 288.776 555.311 288.776ZM338.664 289.123C338.55 288.96 338.36 288.852 338.143 288.852C337.791 288.852 337.509 289.134 337.509 289.486V293.731C337.509 294.079 337.791 294.366 338.143 294.366C338.496 294.366 338.778 294.079 338.778 293.731V289.486C338.778 289.35 338.734 289.226 338.664 289.123ZM555.311 297.267C554.959 297.267 554.677 297.549 554.677 297.901V302.146C554.677 302.212 554.688 302.282 554.709 302.336C554.709 302.347 554.709 302.352 554.715 302.363C554.78 302.553 554.937 302.705 555.132 302.759C555.187 302.775 555.246 302.786 555.306 302.786C555.582 302.786 555.815 302.613 555.902 302.369C555.908 302.358 555.908 302.353 555.908 302.342C555.935 302.282 555.94 302.217 555.94 302.152V297.906C555.94 297.554 555.658 297.272 555.306 297.272L555.311 297.267ZM338.143 297.343C337.791 297.343 337.509 297.625 337.509 297.977V302.222C337.509 302.575 337.791 302.857 338.143 302.857C338.496 302.857 338.778 302.575 338.778 302.222V297.977C338.778 297.625 338.49 297.343 338.143 297.343ZM555.311 305.758C555.246 305.758 555.192 305.768 555.138 305.785C554.872 305.861 554.677 306.105 554.677 306.397V310.643C554.677 310.936 554.872 311.18 555.138 311.255C555.192 311.272 555.252 311.283 555.311 311.283C555.664 311.283 555.946 311.001 555.946 310.648V306.403C555.946 306.056 555.664 305.768 555.311 305.768V305.758ZM338.143 305.833C337.791 305.833 337.509 306.121 337.509 306.468V310.713C337.509 311.066 337.791 311.348 338.143 311.348C338.496 311.348 338.778 311.066 338.778 310.713V306.468C338.778 306.121 338.49 305.833 338.143 305.833ZM555.311 314.248C555.246 314.248 555.192 314.259 555.138 314.276C554.872 314.351 554.677 314.595 554.677 314.888V319.134C554.677 319.486 554.959 319.773 555.311 319.773C555.664 319.773 555.946 319.486 555.946 319.134V314.888C555.946 314.541 555.664 314.254 555.311 314.254V314.248ZM338.143 314.324C337.791 314.324 337.509 314.612 337.509 314.959V318.293C337.926 318.494 338.355 318.694 338.783 318.89V314.959C338.783 314.612 338.496 314.324 338.149 314.324H338.143ZM555.929 323.238C555.87 322.951 555.615 322.739 555.311 322.739C554.959 322.739 554.677 323.027 554.677 323.379V327.625C554.677 327.972 554.959 328.259 555.311 328.259C555.664 328.259 555.946 327.972 555.946 327.625V323.379C555.946 323.33 555.946 323.281 555.929 323.238ZM398.008 337.043H393.762C393.621 337.043 393.486 337.086 393.383 337.167C395.015 337.541 396.647 337.899 398.284 338.246C398.496 338.149 398.642 337.932 398.642 337.677C398.642 337.324 398.36 337.043 398.008 337.043ZM406.499 337.043H402.253C401.906 337.043 401.619 337.324 401.619 337.677C401.619 338.029 401.906 338.311 402.253 338.311H406.499C406.851 338.311 407.133 338.029 407.133 337.677C407.133 337.324 406.851 337.043 406.499 337.043ZM414.989 337.043H410.744C410.397 337.043 410.11 337.324 410.11 337.677C410.11 338.029 410.397 338.311 410.744 338.311H414.989C415.342 338.311 415.629 338.029 415.629 337.677C415.629 337.324 415.342 337.043 414.989 337.043ZM423.486 337.043H419.235C418.888 337.043 418.601 337.324 418.601 337.677C418.601 338.029 418.888 338.311 419.235 338.311H423.486C423.833 338.311 424.12 338.029 424.12 337.677C424.12 337.324 423.833 337.043 423.486 337.043ZM431.977 337.043H427.731C427.379 337.043 427.091 337.324 427.091 337.677C427.091 338.029 427.379 338.311 427.731 338.311H431.977C432.324 338.311 432.611 338.029 432.611 337.677C432.611 337.324 432.324 337.043 431.977 337.043ZM440.467 337.043H436.222C435.87 337.043 435.588 337.324 435.588 337.677C435.588 338.029 435.87 338.311 436.222 338.311H440.467C440.82 338.311 441.102 338.029 441.102 337.677C441.102 337.324 440.82 337.043 440.467 337.043ZM448.958 337.043H444.713C444.36 337.043 444.079 337.324 444.079 337.677C444.079 338.029 444.36 338.311 444.713 338.311H448.958C449.311 338.311 449.593 338.029 449.593 337.677C449.593 337.324 449.311 337.043 448.958 337.043ZM457.449 337.043H453.204C452.857 337.043 452.569 337.324 452.569 337.677C452.569 338.029 452.857 338.311 453.204 338.311H457.449C457.802 338.311 458.084 338.029 458.084 337.677C458.084 337.324 457.802 337.043 457.449 337.043ZM465.946 337.043H461.695C461.532 337.043 461.386 337.108 461.277 337.205C461.142 337.319 461.06 337.487 461.06 337.677C461.06 338.029 461.348 338.311 461.695 338.311H465.946C466.293 338.311 466.58 338.029 466.58 337.677C466.58 337.324 466.293 337.043 465.946 337.043ZM474.436 337.043H470.191C469.839 337.043 469.551 337.324 469.551 337.677C469.551 338.029 469.839 338.311 470.191 338.311H474.436C474.783 338.311 475.071 338.029 475.071 337.677C475.071 337.324 474.783 337.043 474.436 337.043ZM482.927 337.043H478.682C478.329 337.043 478.047 337.324 478.047 337.677C478.047 338.029 478.329 338.311 478.682 338.311H482.927C483.274 338.311 483.562 338.029 483.562 337.677C483.562 337.324 483.274 337.043 482.927 337.043ZM491.418 337.043H487.173C486.82 337.043 486.538 337.324 486.538 337.677C486.538 338.029 486.82 338.311 487.173 338.311H491.418C491.771 338.311 492.053 338.029 492.053 337.677C492.053 337.324 491.771 337.043 491.418 337.043ZM499.909 337.043H495.664C495.317 337.043 495.029 337.324 495.029 337.677C495.029 338.029 495.317 338.311 495.664 338.311H499.909C500.261 338.311 500.543 338.029 500.543 337.677C500.543 337.324 500.261 337.043 499.909 337.043ZM508.4 337.043H504.154C503.807 337.043 503.52 337.324 503.52 337.677C503.52 338.029 503.807 338.311 504.154 338.311H508.4C508.752 338.311 509.04 338.029 509.04 337.677C509.04 337.324 508.752 337.043 508.4 337.043ZM516.896 337.043H512.651C512.298 337.043 512.011 337.324 512.011 337.677C512.011 338.029 512.298 338.311 512.651 338.311H516.896C517.243 338.311 517.531 338.029 517.531 337.677C517.531 337.324 517.243 337.043 516.896 337.043ZM525.387 337.043H521.142C520.789 337.043 520.507 337.324 520.507 337.677C520.507 338.029 520.789 338.311 521.142 338.311H525.387C525.734 338.311 526.021 338.029 526.021 337.677C526.021 337.324 525.734 337.043 525.387 337.043ZM533.878 337.043H529.633C529.296 337.043 529.02 337.303 528.998 337.634C528.998 337.644 528.998 337.661 528.998 337.677C528.998 338.029 529.28 338.311 529.633 338.311H531.124C532.23 338.002 533.33 337.688 534.426 337.357C534.317 337.167 534.111 337.043 533.878 337.043Z" fill="#686868"/>
<path d="M309.444 238.747H346.005C351.85 238.747 356.599 243.497 356.599 249.341V253.63C356.599 259.475 351.85 264.225 346.005 264.225H309.45C303.605 264.225 298.855 259.475 298.855 253.63V249.341C298.855 243.497 303.605 238.747 309.45 238.747H309.444Z" fill="#686868"/>
<path d="M587.296 271.957C587.296 272.087 587.296 272.211 587.29 272.336C587.155 277.319 586.553 282.264 585.512 287.111C585.512 287.138 585.501 287.171 585.495 287.198C585.495 287.209 585.495 287.209 585.495 287.22C585.132 288.922 584.704 290.603 584.227 292.278C583.251 295.711 582.052 299.072 580.632 302.347C580.632 302.358 580.632 302.363 580.626 302.374C578.837 306.506 576.701 310.502 574.229 314.303C573.502 315.425 572.743 316.526 571.951 317.61C570.373 319.801 568.666 321.921 566.849 323.959C564.93 325 562.983 326.009 561.01 326.979C558.022 328.449 554.97 329.837 551.863 331.133C551.348 331.355 550.827 331.572 550.301 331.783C549.396 332.152 548.485 332.515 547.563 332.868C546.235 333.383 544.901 333.882 543.556 334.369C540.574 335.448 537.532 336.446 534.447 337.373C533.352 337.704 532.251 338.024 531.145 338.328C526.889 339.526 522.535 340.583 518.078 341.494C514.662 342.383 511.187 343.001 507.684 343.354C499.594 344.595 491.196 345.403 482.499 345.761C481.078 345.826 479.652 345.87 478.215 345.902C472.907 343.929 467.805 341.396 462.99 338.328C462.416 337.97 461.852 337.596 461.288 337.216C450.964 330.276 442.099 320.836 435.68 309.195C431.646 301.875 428.864 294.203 427.265 286.428C427.2 286.13 427.14 285.832 427.086 285.528C426.896 284.574 426.733 283.614 426.582 282.654C423.112 260.473 429.108 237.755 442.918 220.187C446.226 215.974 449.983 212.06 454.169 208.525C455.915 207.044 457.737 205.629 459.629 204.29C461.174 203.189 462.763 202.143 464.4 201.145C464.411 201.145 464.411 201.134 464.422 201.134C464.975 200.793 465.539 200.462 466.103 200.137C466.547 199.876 466.997 199.627 467.447 199.378C471.161 197.328 474.968 195.604 478.834 194.194C481.517 193.207 484.234 192.383 486.961 191.7C493.413 190.095 499.958 189.314 506.464 189.32C517.921 189.331 529.237 191.776 539.625 196.45C540.926 197.03 542.217 197.653 543.486 198.304C544.012 198.57 544.527 198.846 545.047 199.128C546.359 199.833 547.644 200.581 548.913 201.367C550.887 202.577 552.812 203.878 554.677 205.266C555.105 205.58 555.528 205.9 555.951 206.226C556.715 206.817 557.474 207.429 558.223 208.053C558.749 208.487 559.269 208.931 559.784 209.381C560.636 210.129 561.476 210.899 562.305 211.686C562.316 211.696 562.322 211.702 562.333 211.713C564.431 213.719 566.426 215.844 568.319 218.1C568.85 218.729 569.37 219.374 569.88 220.019C571.409 221.955 572.857 223.972 574.223 226.07C574.337 226.244 574.445 226.417 574.554 226.596C574.635 226.71 574.706 226.829 574.776 226.943C575.031 227.344 575.286 227.74 575.524 228.147C576.126 229.134 576.712 230.137 577.27 231.156C579.19 234.648 580.827 238.215 582.188 241.832C582.188 241.843 582.199 241.848 582.199 241.859C584.08 246.864 585.43 251.96 586.271 257.095C587.084 262.045 587.42 267.033 587.306 271.978L587.296 271.957Z" fill="#4563AA"/>
<path d="M579.987 287.106C579.987 287.144 579.976 287.182 579.971 287.214C579.081 292.381 577.693 297.446 575.828 302.336C575.828 302.347 575.828 302.353 575.823 302.363C575.324 303.681 574.787 304.988 574.218 306.278C572.944 309.173 571.496 311.998 569.875 314.726C569.371 315.582 568.85 316.428 568.313 317.258C568.243 317.372 568.167 317.485 568.091 317.599C565.971 320.874 563.602 324.008 560.994 326.968C558.006 328.438 554.953 329.826 551.847 331.122C551.332 331.344 550.811 331.561 550.285 331.772C549.38 332.141 548.469 332.504 547.547 332.857C546.219 333.372 544.885 333.871 543.54 334.359C540.558 335.438 537.516 336.435 534.431 337.363C533.336 337.693 532.235 338.013 531.129 338.317C526.873 339.515 522.519 340.572 518.062 341.483C514.646 342.372 511.171 342.991 507.668 343.343C499.578 344.585 491.18 345.393 482.483 345.75C481.062 345.815 479.636 345.859 478.199 345.891C476.106 345.946 473.997 345.973 471.866 345.973C469.307 345.973 466.737 345.946 464.151 345.886C449.972 338.816 437.713 327.516 429.488 312.589C424.933 304.332 421.979 295.629 420.52 286.824C420.433 286.314 420.352 285.805 420.281 285.295C420.168 284.547 420.07 283.793 419.983 283.039C417.251 259.822 424.765 236.307 440.647 218.967C444.328 214.944 448.454 211.257 453.014 207.982C453.578 207.581 454.142 207.185 454.717 206.795C456.387 205.656 458.111 204.572 459.884 203.553C460.339 203.287 460.8 203.027 461.261 202.777C462.297 202.202 463.343 201.66 464.39 201.14C464.4 201.14 464.4 201.129 464.411 201.129C464.943 200.863 465.474 200.603 466.011 200.354C466.499 200.131 466.981 199.904 467.469 199.687C470.636 198.277 473.851 197.09 477.093 196.114C477.402 196.021 477.706 195.929 478.015 195.842C480.97 194.991 483.952 194.319 486.945 193.815C488.539 193.544 490.128 193.327 491.727 193.164C495.978 192.714 500.229 192.606 504.458 192.828C511.268 193.186 517.992 194.406 524.471 196.439C526.445 197.057 528.396 197.751 530.321 198.521C530.847 198.727 531.362 198.938 531.883 199.166C533.227 199.73 534.55 200.337 535.868 200.977C538.471 202.251 541.019 203.666 543.48 205.228C544.006 205.553 544.521 205.889 545.042 206.236C547.558 207.901 549.987 209.712 552.313 211.669C552.324 211.68 552.335 211.686 552.34 211.696C552.752 212.043 553.164 212.396 553.571 212.754C553.94 213.074 554.308 213.404 554.671 213.73C554.823 213.871 554.981 214.012 555.132 214.158C555.403 214.407 555.675 214.662 555.946 214.917C557.464 216.354 558.933 217.867 560.343 219.439C562.371 221.689 564.285 224.069 566.074 226.585C566.079 226.596 566.085 226.596 566.09 226.607V226.618C566.166 226.726 566.242 226.829 566.313 226.938C568.021 229.356 569.609 231.899 571.073 234.55C572.114 236.437 573.068 238.351 573.941 240.281C574.028 240.471 574.115 240.666 574.202 240.856C574.343 241.176 574.484 241.501 574.619 241.821C574.619 241.832 574.63 241.837 574.63 241.848C575.199 243.182 575.731 244.527 576.224 245.871C576.799 247.433 577.314 249 577.786 250.572C578.431 252.73 578.978 254.899 579.434 257.079C580.03 259.931 580.464 262.799 580.746 265.673C580.952 267.771 581.077 269.869 581.115 271.962C581.115 272.092 581.12 272.217 581.12 272.342C581.191 277.314 580.806 282.253 579.971 287.117L579.987 287.106Z" fill="#A8B6D4"/>
<path d="M574.413 272.331C574.413 272.201 574.413 272.076 574.402 271.951C574.375 270.818 574.305 269.685 574.218 268.552C573.909 264.686 573.296 260.847 572.374 257.068C572.157 256.184 571.924 255.311 571.68 254.438C570.46 250.128 568.834 245.915 566.817 241.832C566.817 241.821 566.806 241.816 566.806 241.805C566.313 240.807 565.797 239.82 565.261 238.839C563.618 235.857 561.791 233.016 559.79 230.326C559.28 229.643 558.76 228.966 558.228 228.304C557.854 227.838 557.475 227.371 557.095 226.921C556.998 226.808 556.9 226.688 556.802 226.574C556.526 226.244 556.244 225.924 555.962 225.604C555.696 225.295 555.425 224.997 555.149 224.698C554.997 224.525 554.84 224.362 554.688 224.194C554.324 223.809 553.967 223.419 553.587 223.045C550.068 219.407 546.186 216.153 541.989 213.328C541.474 212.981 540.954 212.64 540.428 212.304C540.103 212.098 539.783 211.897 539.457 211.691C539.446 211.68 539.43 211.675 539.414 211.664C536.996 210.184 534.491 208.839 531.894 207.635C531.378 207.397 530.858 207.164 530.332 206.93C527.399 205.651 524.352 204.55 521.223 203.645C514.38 201.666 507.402 200.69 500.468 200.711C495.929 200.722 491.413 201.156 486.961 202.013C484.586 202.468 482.228 203.037 479.902 203.737C477.804 204.355 475.732 205.076 473.688 205.889C470.804 207.039 467.968 208.373 465.203 209.896C464.341 210.373 463.489 210.861 462.654 211.371C460.323 212.775 458.089 214.299 455.953 215.931C454.229 217.243 452.564 218.637 450.975 220.09C450.005 220.968 449.067 221.874 448.156 222.806C439.692 231.405 433.457 242.022 430.008 253.934C427.27 263.384 426.462 273.09 427.525 282.584C427.634 283.576 427.764 284.557 427.916 285.544C427.959 285.821 427.997 286.097 428.046 286.374C429.396 294.539 432.145 302.499 436.26 309.96C442.474 321.227 451.312 330.471 461.966 337.048C462.671 337.487 463.386 337.91 464.113 338.322C469.155 341.207 474.577 343.506 480.292 345.159C481.024 345.371 481.762 345.571 482.494 345.756C491.191 345.398 499.589 344.59 507.679 343.348C498.998 344.227 490.144 343.435 481.512 340.936C478.964 340.198 476.481 339.325 474.062 338.322C473.092 337.921 472.127 337.493 471.183 337.048C458.062 330.883 447.24 320.782 440.104 307.84C436.314 300.959 433.755 293.628 432.459 286.103C432.432 285.967 432.416 285.826 432.394 285.691C432.204 284.574 432.047 283.446 431.922 282.318C430.881 273.318 431.64 264.116 434.232 255.154C437.203 244.885 442.382 235.64 449.349 227.946C450.33 226.867 451.344 225.815 452.391 224.796C452.987 224.216 453.594 223.647 454.207 223.093C456.376 221.142 458.669 219.314 461.087 217.628C463.083 216.235 465.165 214.944 467.323 213.751C468.738 212.976 470.169 212.244 471.612 211.572C474.317 210.308 477.088 209.229 479.902 208.335C482.228 207.597 484.586 206.985 486.961 206.497C490.757 205.721 494.606 205.271 498.478 205.147C505.656 204.919 512.906 205.819 519.998 207.874C523.506 208.888 526.894 210.157 530.142 211.669C530.159 211.68 530.175 211.686 530.197 211.696C533.786 213.372 537.207 215.345 540.428 217.59C540.954 217.959 541.469 218.333 541.989 218.707C545.178 221.066 548.154 223.695 550.892 226.58C551.006 226.694 551.115 226.813 551.223 226.927C552.427 228.206 553.576 229.535 554.682 230.912C555.116 231.449 555.534 231.991 555.956 232.544C556.743 233.585 557.502 234.648 558.228 235.738C558.765 236.535 559.291 237.348 559.79 238.172C560.354 239.088 560.896 240.021 561.416 240.964C561.568 241.241 561.726 241.528 561.872 241.81C561.872 241.81 561.883 241.827 561.883 241.837C562.3 242.613 562.696 243.394 563.076 244.185C565.103 248.355 566.692 252.671 567.836 257.079C569.11 261.953 569.831 266.941 570.005 271.962C570.005 272.087 570.01 272.217 570.016 272.342C570.162 277.259 569.772 282.204 568.845 287.117C568.834 287.149 568.834 287.187 568.823 287.225C568.433 289.291 567.939 291.351 567.359 293.395C567.332 293.482 567.31 293.569 567.283 293.656C566.416 296.643 565.364 299.544 564.138 302.347C564.138 302.358 564.127 302.363 564.127 302.374C561.942 307.357 559.199 312.025 555.951 316.303C555.685 316.65 555.414 317.003 555.138 317.35C555.073 317.437 555.002 317.523 554.932 317.61C554.85 317.719 554.764 317.822 554.677 317.93C553.771 319.047 552.828 320.142 551.852 321.205C551.348 321.769 550.827 322.316 550.291 322.859C546.81 326.405 542.927 329.593 538.693 332.353C538.427 332.531 538.156 332.705 537.885 332.868C536.681 333.638 535.445 334.37 534.182 335.064C532.902 335.768 531.601 336.435 530.289 337.053C529.866 337.259 529.437 337.455 529.004 337.644C525.447 339.244 521.787 340.529 518.062 341.494C522.514 340.578 526.867 339.52 531.129 338.328C532.235 338.019 533.336 337.704 534.431 337.373C537.522 336.446 540.558 335.449 543.54 334.37C544.229 333.882 544.906 333.377 545.573 332.868C547.205 331.626 548.778 330.319 550.285 328.953C550.811 328.476 551.332 327.993 551.847 327.5C552.817 326.573 553.761 325.618 554.671 324.637C555.094 324.182 555.517 323.721 555.929 323.254C557.529 321.449 559.036 319.567 560.446 317.615C563.547 313.327 566.182 308.691 568.308 303.768C568.508 303.312 568.704 302.846 568.893 302.38C568.893 302.369 568.893 302.363 568.904 302.353C569.896 299.929 570.759 297.435 571.501 294.886C571.8 293.845 572.082 292.804 572.331 291.758C572.694 290.251 573.02 288.743 573.285 287.231C573.291 287.193 573.296 287.155 573.307 287.122C573.442 286.368 573.562 285.615 573.67 284.861C573.909 283.24 574.093 281.613 574.212 279.987C574.413 277.438 574.478 274.89 574.408 272.347L574.413 272.331Z" fill="#27458B"/>
<path d="M537.966 287.214C537.966 287.176 537.955 287.144 537.95 287.106C537.684 285.257 537.158 283.365 536.372 281.44C536.215 281.039 536.041 280.654 535.873 280.274C534.702 277.709 533.281 275.573 531.601 273.876C531.395 273.67 531.183 273.464 530.966 273.269C530.663 272.992 530.354 272.727 530.039 272.472C529.979 272.428 529.92 272.374 529.866 272.331C529.703 272.201 529.54 272.076 529.372 271.951C527.54 270.58 525.501 269.501 523.245 268.731C520.312 267.722 517.042 267.104 513.437 266.887C509.831 266.665 505.9 266.611 501.66 266.735C499.036 266.817 496.797 266.768 494.937 266.6C493.072 266.432 491.494 266.085 490.198 265.564C488.902 265.044 487.85 264.328 487.037 263.422C487.01 263.39 486.972 263.352 486.95 263.319C486.864 263.222 486.777 263.113 486.695 263.01C486.403 262.653 486.137 262.268 485.893 261.861C485.573 261.324 485.286 260.744 485.031 260.11C484.5 258.808 484.201 257.512 484.12 256.227C484.039 254.948 484.234 253.728 484.695 252.573C485.15 251.445 485.871 250.404 486.88 249.444C486.902 249.417 486.923 249.401 486.945 249.379C487.986 248.398 489.358 247.568 491.06 246.874C493.462 245.898 495.745 245.687 497.903 246.229C498.575 246.397 499.237 246.641 499.893 246.956C502.625 248.295 504.848 251.077 506.567 255.311L523.039 248.626C522.004 246.083 520.778 243.816 519.363 241.843C519.358 241.832 519.352 241.827 519.347 241.816C518.805 241.062 518.241 240.352 517.644 239.685C515.486 237.25 513.052 235.374 510.346 234.046C507.641 232.718 504.691 231.948 501.503 231.72C498.315 231.498 494.997 231.834 491.564 232.739L490.355 229.757L489.065 226.585L486.945 221.364L486.901 221.25L477.787 224.953L479.885 230.12L482.385 236.274C482.005 236.47 481.637 236.67 481.273 236.876C480.802 237.137 480.335 237.408 479.885 237.69C477.657 239.05 475.7 240.563 474.013 242.233C471.725 244.5 469.969 246.95 468.738 249.585C467.502 252.226 466.856 254.991 466.797 257.892C466.737 260.793 467.317 263.748 468.537 266.741C469.941 270.2 471.752 272.943 473.965 274.955C475.64 276.484 477.521 277.715 479.598 278.658C480.265 278.962 480.964 279.233 481.675 279.472C483.106 279.96 484.63 280.35 486.229 280.643C486.468 280.686 486.706 280.73 486.95 280.767C488.398 281.006 489.911 281.169 491.494 281.25C495.11 281.445 499.052 281.44 503.298 281.239C505.765 281.098 507.906 281.109 509.723 281.283C511.539 281.451 513.106 281.798 514.429 282.329C515.752 282.86 516.847 283.603 517.726 284.568C518.371 285.273 518.946 286.119 519.439 287.111C519.455 287.149 519.472 287.182 519.493 287.22C519.65 287.54 519.802 287.876 519.943 288.228C520.475 289.54 520.735 290.836 520.729 292.132C520.729 292.376 520.719 292.62 520.692 292.859C520.605 293.894 520.323 294.892 519.851 295.846C519.271 297.028 518.398 298.123 517.238 299.132C516.072 300.14 514.603 300.997 512.813 301.729C512.239 301.962 511.658 302.168 511.067 302.342C511.04 302.353 511.008 302.358 510.986 302.369C510.005 302.656 509.007 302.862 507.982 302.987C506.312 303.188 504.691 303.025 503.102 302.499C502.983 302.456 502.864 302.418 502.739 302.369C502.712 302.358 502.696 302.353 502.674 302.342C501.248 301.789 499.909 300.889 498.651 299.62C497.268 298.237 496.065 296.285 495.045 293.775L479.999 299.886H479.988L478.579 300.46C480.297 304.695 482.455 308.051 485.053 310.529C486.603 312.015 488.246 313.245 489.976 314.221C491.142 314.877 492.34 315.425 493.587 315.853C496.677 316.921 499.909 317.393 503.281 317.252C506.654 317.117 509.983 316.569 513.263 315.604L514.077 317.61L517.514 326.09L526.574 322.409L524.622 317.61L522.296 311.879C525.588 310.171 528.407 308.203 530.755 305.974C531.969 304.825 533.032 303.627 533.954 302.374C533.965 302.363 533.965 302.358 533.97 302.347C534.691 301.366 535.315 300.357 535.857 299.311C535.954 299.121 536.052 298.926 536.144 298.731C536.86 297.234 537.386 295.689 537.711 294.084C537.961 292.907 538.096 291.704 538.129 290.467C538.156 289.399 538.096 288.315 537.944 287.225L537.966 287.214Z" fill="#27458B"/>
<path d="M313.945 255.424C316.295 253.073 316.295 249.263 313.945 246.912C311.594 244.562 307.784 244.562 305.433 246.912C303.083 249.263 303.083 253.073 305.433 255.424C307.784 257.774 311.594 257.774 313.945 255.424Z" fill="#A8B6D4"/>
<path d="M1318.95 730.683H4.3415C1.94367 730.683 0 728.739 0 726.341C0 723.944 1.94367 722 4.3415 722H1318.95C1321.35 722 1323.29 723.944 1323.29 726.341C1323.29 728.739 1321.35 730.683 1318.95 730.683Z" fill="#58595B"/>
</svg>
