<svg width="47" height="47" viewBox="0 0 47 47" fill="none" xmlns="http://www.w3.org/2000/svg">
<circle cx="23.5" cy="23.5" r="23.5" fill="#4563AA"/>
<path d="M33.7129 31.2949C34.082 31.7051 34.082 32.3203 33.6719 32.6895L32.5234 33.8379C32.1543 34.248 31.5391 34.248 31.1289 33.8379L27.0684 29.7773C26.8633 29.5723 26.7812 29.3262 26.7812 29.0801V28.3828C25.3047 29.5312 23.5 30.1875 21.5312 30.1875C16.8145 30.1875 13 26.373 13 21.6562C13 16.9805 16.8145 13.125 21.5312 13.125C26.207 13.125 30.0625 16.9805 30.0625 21.6562C30.0625 23.666 29.3652 25.4707 28.2578 26.9062H28.9141C29.1602 26.9062 29.4062 27.0293 29.6113 27.1934L33.7129 31.2949ZM21.5312 26.9062C24.4023 26.9062 26.7812 24.5684 26.7812 21.6562C26.7812 18.7852 24.4023 16.4062 21.5312 16.4062C18.6191 16.4062 16.2812 18.7852 16.2812 21.6562C16.2812 24.5684 18.6191 26.9062 21.5312 26.9062Z" fill="white"/>
</svg>
