<svg width="363" height="436" viewBox="0 0 363 436" fill="none" xmlns="http://www.w3.org/2000/svg">
<rect width="363" height="436" rx="20" fill="white"/>
<path d="M278.147 207.051H84.6882V228.056H278.147V207.051Z" fill="#CAD9FC"/>
<path d="M278.147 117.869H84.6882V207.051H278.147V117.869Z" fill="white"/>
<path d="M252.007 196.56H110.833L95.1466 186.068V138.855L110.833 128.362H252.007L267.693 138.855V186.068L252.007 196.56Z" fill="#D7E9FF"/>
<path d="M131.753 162.461C131.753 166.811 128.237 170.336 123.902 170.336C119.566 170.336 116.05 166.811 116.05 162.461C116.05 158.106 119.566 154.582 123.902 154.582C128.237 154.582 131.753 158.107 131.753 162.461Z" fill="white"/>
<path d="M246.788 162.461C246.788 166.811 243.27 170.336 238.935 170.336C234.6 170.336 231.082 166.811 231.082 162.461C231.082 158.106 234.6 154.582 238.935 154.582C243.27 154.582 246.788 158.107 246.788 162.461Z" fill="white"/>
<path d="M278.147 117.869H84.6882V123.127H278.147V117.869Z" fill="#D7E9FF"/>
<path d="M278.147 201.793H84.6882V207.496H278.147V201.793Z" fill="#CAD9FC"/>
<path d="M89.9144 123.127L84.6882 123.127V201.793L89.9144 201.793V123.127Z" fill="#D7E9FF"/>
<path d="M278.149 123.127H272.92V201.793H278.149V123.127Z" fill="#CAD9FC"/>
<path d="M215.41 117.869H147.432V207.051H215.41V117.869Z" fill="white"/>
<path d="M215.41 207.051H147.432V228.056H215.41V207.051Z" fill="#D7E9FF"/>
<path d="M142.202 199.183H105.604C104.16 199.183 102.99 198.01 102.99 196.56C102.99 192.221 99.4719 188.691 95.1472 188.691C93.702 188.691 92.5328 187.518 92.5328 186.068V138.855C92.5328 137.405 93.702 136.232 95.1472 136.232C99.4719 136.232 102.99 132.702 102.99 128.362C102.99 126.913 104.16 125.739 105.604 125.739H142.202C143.647 125.739 144.817 126.912 144.817 128.362C144.817 129.812 143.648 130.985 142.202 130.985H107.955C106.914 136.119 102.875 140.166 97.761 141.216V183.706C102.875 184.756 106.914 188.804 107.955 193.937H142.202C143.647 193.937 144.817 195.11 144.817 196.56C144.816 198.01 143.647 199.183 142.202 199.183Z" fill="#4563AA"/>
<path d="M142.202 220.167H84.6895C83.2442 220.167 82.0751 218.994 82.0751 217.544C82.0751 216.094 83.2442 214.921 84.6895 214.921H142.202C143.647 214.921 144.817 216.094 144.817 217.544C144.816 218.994 143.647 220.167 142.202 220.167Z" fill="#4563AA"/>
<path d="M142.202 230.679H84.6895C83.2442 230.679 82.0751 229.506 82.0751 228.056C82.0751 226.607 83.2442 225.434 84.6895 225.434H142.202C143.647 225.434 144.817 226.607 144.817 228.056C144.816 229.506 143.647 230.679 142.202 230.679Z" fill="#4563AA"/>
<path d="M147.431 230.679C145.986 230.679 144.817 229.506 144.817 228.056L144.816 117.871C144.816 116.421 145.985 115.248 147.431 115.248C148.876 115.248 150.045 116.421 150.045 117.871V228.056C150.045 229.506 148.876 230.679 147.431 230.679Z" fill="#4563AA"/>
<path d="M142.202 209.675H84.6895C83.2442 209.675 82.0751 208.502 82.0751 207.052C82.0751 205.603 83.2442 204.43 84.6895 204.43H142.202C143.647 204.43 144.817 205.603 144.817 207.052C144.816 208.502 143.647 209.675 142.202 209.675Z" fill="#4563AA"/>
<path d="M84.6895 209.675C83.2442 209.675 82.0751 208.502 82.0751 207.052L82.0745 117.871C82.0745 116.422 83.2436 115.248 84.6889 115.248C86.1335 115.248 87.3033 116.421 87.3033 117.871V207.052C87.3033 208.502 86.1348 209.675 84.6895 209.675Z" fill="#4563AA"/>
<path d="M142.203 120.493H84.6897C83.2444 120.493 82.0753 119.32 82.0753 117.87C82.0753 116.42 83.2444 115.247 84.6897 115.247H142.203C143.647 115.247 144.817 116.42 144.817 117.87C144.817 119.32 143.647 120.493 142.203 120.493Z" fill="#4563AA"/>
<path d="M257.236 199.183H220.635C219.19 199.183 218.021 198.01 218.021 196.56C218.021 195.11 219.19 193.937 220.635 193.937H254.882C255.93 188.804 259.963 184.756 265.08 183.706V141.216C259.963 140.166 255.93 136.119 254.882 130.985H220.635C219.19 130.985 218.021 129.812 218.021 128.362C218.021 126.912 219.19 125.739 220.635 125.739H257.236C258.681 125.739 259.85 126.912 259.85 128.362C259.85 132.701 263.369 136.232 267.693 136.232C269.138 136.232 270.307 137.405 270.307 138.855V186.068C270.307 187.518 269.138 188.691 267.693 188.691C263.369 188.691 259.85 192.221 259.85 196.56C259.85 198.01 258.681 199.183 257.236 199.183Z" fill="#4563AA"/>
<path d="M278.151 220.167H220.635C219.19 220.167 218.021 218.994 218.021 217.544C218.021 216.094 219.19 214.921 220.635 214.921H278.151C279.596 214.921 280.765 216.094 280.765 217.544C280.765 218.994 279.596 220.167 278.151 220.167Z" fill="#4563AA"/>
<path d="M278.151 230.679H220.635C219.19 230.679 218.021 229.506 218.021 228.056C218.021 226.607 219.19 225.434 220.635 225.434H278.151C279.596 225.434 280.765 226.607 280.765 228.056C280.765 229.506 279.596 230.679 278.151 230.679Z" fill="#4563AA"/>
<path d="M215.406 230.679C213.961 230.679 212.792 229.506 212.792 228.056V117.871C212.792 116.421 213.961 115.248 215.406 115.248C216.851 115.248 218.02 116.421 218.02 117.871L218.021 228.056C218.021 229.506 216.851 230.679 215.406 230.679Z" fill="#4563AA"/>
<path d="M278.151 209.675H220.635C219.19 209.675 218.021 208.502 218.021 207.052C218.021 205.603 219.19 204.43 220.635 204.43H278.151C279.596 204.43 280.765 205.603 280.765 207.052C280.765 208.502 279.596 209.675 278.151 209.675Z" fill="#4563AA"/>
<path d="M278.151 209.675C276.706 209.675 275.537 208.502 275.537 207.052V117.871C275.537 116.421 276.706 115.248 278.151 115.248C279.596 115.248 280.765 116.421 280.765 117.871L280.765 207.052C280.765 208.502 279.596 209.675 278.151 209.675Z" fill="#4563AA"/>
<path d="M278.151 120.493H220.635C219.19 120.493 218.02 119.321 218.02 117.871C218.02 116.421 219.19 115.247 220.635 115.247L278.151 115.248C279.596 115.248 280.765 116.421 280.765 117.871C280.765 119.321 279.596 120.493 278.151 120.493Z" fill="#4563AA"/>
<path d="M215.406 120.493H147.431C145.986 120.493 144.816 119.321 144.816 117.871C144.816 116.421 145.985 115.248 147.431 115.248H215.406C216.851 115.248 218.02 116.421 218.02 117.871C218.02 119.321 216.851 120.493 215.406 120.493Z" fill="#4563AA"/>
<path d="M204.949 209.675H157.888C156.443 209.675 155.273 208.502 155.273 207.052C155.273 205.603 156.443 204.43 157.888 204.43H204.949C206.394 204.43 207.563 205.603 207.563 207.052C207.563 208.502 206.394 209.675 204.949 209.675Z" fill="#4563AA"/>
<path d="M215.406 230.679H147.431C145.986 230.679 144.817 229.506 144.817 228.056C144.817 226.607 145.985 225.434 147.431 225.434H215.406C216.851 225.434 218.021 226.607 218.021 228.056C218.021 229.506 216.851 230.679 215.406 230.679Z" fill="#4563AA"/>
<path d="M123.901 172.953C118.137 172.953 113.446 168.245 113.446 162.461C113.446 156.677 118.137 151.969 123.901 151.969C129.669 151.969 134.359 156.677 134.359 162.461C134.359 168.245 129.669 172.953 123.901 172.953ZM123.901 157.215C121.019 157.215 118.675 159.567 118.675 162.462C118.675 165.356 121.019 167.708 123.901 167.708C126.784 167.708 129.13 165.356 129.13 162.462C129.13 159.567 126.784 157.215 123.901 157.215Z" fill="#4563AA"/>
<path d="M238.935 172.953C233.17 172.953 228.478 168.245 228.478 162.461C228.478 156.677 233.171 151.969 238.935 151.969C244.7 151.969 249.392 156.677 249.392 162.461C249.392 168.245 244.701 172.953 238.935 172.953ZM238.935 157.215C236.051 157.215 233.707 159.567 233.707 162.462C233.707 165.356 236.051 167.708 238.935 167.708C241.82 167.708 244.163 165.356 244.163 162.462C244.163 159.567 241.82 157.215 238.935 157.215Z" fill="#4563AA"/>
<path d="M181.963 155.681C175.71 154.952 175.71 154.56 175.71 152.88C175.71 149.743 185.09 148.847 187.658 152.432C189.2 155.123 192.624 156.051 195.307 154.504C197.989 152.958 198.914 149.522 197.372 146.83C194.958 143.13 191.186 140.533 186.876 139.604C187.006 137.603 186.061 135.685 184.399 134.571C182.736 133.458 180.608 133.319 178.816 134.207C177.024 135.095 175.84 136.875 175.71 138.876V139.66C169.391 140.95 164.776 146.415 164.544 152.88C164.544 164.811 175.375 166.211 180.623 166.828C186.876 167.612 186.876 168.004 186.876 169.684C186.876 171.365 183.861 172.485 181.293 172.485C178.819 172.589 176.35 172.189 174.035 171.309C171.858 169.137 168.341 169.137 166.163 171.309C165.106 172.361 164.512 173.792 164.512 175.286C164.512 176.779 165.106 178.211 166.163 179.263C168.887 181.501 172.207 182.884 175.71 183.24C175.63 185.241 176.621 187.133 178.308 188.203C179.996 189.273 182.124 189.358 183.891 188.427C185.659 187.496 186.796 185.689 186.876 183.688V182.96C193.295 181.802 197.984 176.227 198.042 169.684C198.042 157.753 187.211 156.353 181.963 155.681Z" fill="#4563AA"/>
<path fill-rule="evenodd" clip-rule="evenodd" d="M310.163 110.464L341.982 142.284C343.935 144.237 343.935 147.403 341.982 149.355L310.163 181.175C308.21 183.128 305.044 183.128 303.091 181.175C301.139 179.223 301.139 176.057 303.091 174.104L326.376 150.82H281C278.239 150.82 276 148.581 276 145.82C276 143.058 278.239 140.82 281 140.82H326.376L303.091 117.536C301.139 115.583 301.139 112.417 303.091 110.464C305.044 108.512 308.21 108.512 310.163 110.464Z" fill="#4563AA"/>
<path fill-rule="evenodd" clip-rule="evenodd" d="M53.2843 223.756L21.4645 191.937C19.5118 189.984 19.5118 186.818 21.4645 184.866L53.2843 153.046C55.2369 151.093 58.4027 151.093 60.3553 153.046C62.308 154.998 62.308 158.164 60.3553 160.117L37.0711 183.401H82.0745C84.8359 183.401 87.0745 185.64 87.0745 188.401C87.0745 191.163 84.8359 193.401 82.0745 193.401H37.0711L60.3553 216.685C62.308 218.638 62.308 221.804 60.3553 223.756C58.4027 225.709 55.2369 225.709 53.2843 223.756Z" fill="#4563AA"/>
<path d="M79.9318 371.034V367.909H101.75V371.034H92.6023V397H89.0795V371.034H79.9318ZM107.187 397V367.909H117.016C119.289 367.909 121.155 368.297 122.613 369.074C124.071 369.841 125.151 370.897 125.852 372.241C126.552 373.586 126.903 375.116 126.903 376.83C126.903 378.544 126.552 380.063 125.852 381.389C125.151 382.715 124.076 383.757 122.627 384.514C121.178 385.262 119.327 385.636 117.073 385.636H109.119V382.455H116.96C118.513 382.455 119.763 382.227 120.71 381.773C121.666 381.318 122.357 380.674 122.783 379.841C123.219 378.998 123.437 377.994 123.437 376.83C123.437 375.665 123.219 374.647 122.783 373.776C122.348 372.904 121.652 372.232 120.695 371.759C119.739 371.276 118.475 371.034 116.903 371.034H110.71V397H107.187ZM120.88 383.932L128.039 397H123.948L116.903 383.932H120.88ZM133.966 397H130.273L140.955 367.909H144.591L155.273 397H151.58L142.886 372.511H142.659L133.966 397ZM135.33 385.636H150.216V388.761H135.33V385.636ZM182.872 367.909V397H179.463L163.611 374.159H163.327V397H159.804V367.909H163.213L179.122 390.807H179.406V367.909H182.872ZM205.83 375.182C205.66 373.742 204.969 372.625 203.756 371.83C202.544 371.034 201.058 370.636 199.296 370.636C198.008 370.636 196.881 370.845 195.915 371.261C194.959 371.678 194.211 372.251 193.671 372.98C193.141 373.709 192.876 374.538 192.876 375.466C192.876 376.242 193.06 376.91 193.43 377.469C193.808 378.018 194.291 378.477 194.879 378.847C195.466 379.206 196.081 379.505 196.725 379.741C197.369 379.969 197.961 380.153 198.501 380.295L201.455 381.091C202.213 381.29 203.056 381.564 203.984 381.915C204.921 382.265 205.816 382.743 206.668 383.349C207.53 383.946 208.24 384.713 208.799 385.651C209.358 386.588 209.637 387.739 209.637 389.102C209.637 390.674 209.225 392.095 208.401 393.364C207.587 394.633 206.394 395.641 204.822 396.389C203.259 397.137 201.361 397.511 199.126 397.511C197.042 397.511 195.238 397.175 193.714 396.503C192.199 395.83 191.005 394.893 190.134 393.69C189.272 392.488 188.785 391.091 188.671 389.5H192.308C192.402 390.598 192.772 391.508 193.415 392.227C194.069 392.937 194.893 393.468 195.887 393.818C196.891 394.159 197.97 394.33 199.126 394.33C200.47 394.33 201.678 394.112 202.748 393.676C203.818 393.231 204.665 392.616 205.29 391.83C205.915 391.034 206.228 390.106 206.228 389.045C206.228 388.08 205.958 387.294 205.418 386.688C204.879 386.081 204.168 385.589 203.288 385.21C202.407 384.831 201.455 384.5 200.433 384.216L196.853 383.193C194.58 382.54 192.781 381.607 191.455 380.395C190.129 379.183 189.467 377.597 189.467 375.636C189.467 374.008 189.907 372.587 190.788 371.375C191.678 370.153 192.871 369.206 194.367 368.534C195.873 367.852 197.554 367.511 199.41 367.511C201.285 367.511 202.951 367.848 204.41 368.52C205.868 369.183 207.023 370.092 207.876 371.247C208.737 372.402 209.192 373.714 209.239 375.182H205.83ZM215.429 397V367.909H232.872V371.034H218.952V380.864H231.565V383.989H218.952V397H215.429ZM238.906 397V367.909H256.462V371.034H242.428V380.864H255.553V383.989H242.428V393.875H256.69V397H238.906ZM262.812 397V367.909H272.641C274.914 367.909 276.78 368.297 278.238 369.074C279.696 369.841 280.776 370.897 281.477 372.241C282.177 373.586 282.528 375.116 282.528 376.83C282.528 378.544 282.177 380.063 281.477 381.389C280.776 382.715 279.701 383.757 278.252 384.514C276.803 385.262 274.952 385.636 272.698 385.636H264.744V382.455H272.585C274.138 382.455 275.388 382.227 276.335 381.773C277.291 381.318 277.982 380.674 278.408 379.841C278.844 378.998 279.062 377.994 279.062 376.83C279.062 375.665 278.844 374.647 278.408 373.776C277.973 372.904 277.277 372.232 276.32 371.759C275.364 371.276 274.1 371.034 272.528 371.034H266.335V397H262.812ZM276.505 383.932L283.664 397H279.573L272.528 383.932H276.505Z" fill="#4563AA"/>
</svg>
