<svg width="324" height="300" viewBox="0 0 324 300" fill="none" xmlns="http://www.w3.org/2000/svg">
<path d="M258.147 187.051H64.6882V208.056H258.147V187.051Z" fill="#CAD9FC"/>
<path d="M258.147 97.8693H64.6882V187.051H258.147V97.8693Z" fill="white"/>
<path d="M232.007 176.56H90.8326L75.1466 166.068V118.855L90.8326 108.362H232.007L247.693 118.855V166.068L232.007 176.56Z" fill="#D7E9FF"/>
<path d="M111.753 142.461C111.753 146.811 108.237 150.336 103.902 150.336C99.5664 150.336 96.0504 146.811 96.0504 142.461C96.0504 138.106 99.5664 134.582 103.902 134.582C108.237 134.582 111.753 138.107 111.753 142.461Z" fill="white"/>
<path d="M226.788 142.461C226.788 146.811 223.27 150.336 218.935 150.336C214.6 150.336 211.082 146.811 211.082 142.461C211.082 138.106 214.6 134.582 218.935 134.582C223.27 134.582 226.788 138.107 226.788 142.461Z" fill="white"/>
<path d="M258.147 97.8693H64.6882V103.127H258.147V97.8693Z" fill="#D7E9FF"/>
<path d="M258.147 181.793H64.6882V187.496H258.147V181.793Z" fill="#CAD9FC"/>
<path d="M69.9144 103.127L64.6882 103.127V181.793L69.9144 181.793V103.127Z" fill="#D7E9FF"/>
<path d="M258.149 103.127H252.92V181.793H258.149V103.127Z" fill="#CAD9FC"/>
<path d="M195.41 97.8693H127.432V187.051H195.41V97.8693Z" fill="white"/>
<path d="M195.41 187.051H127.432V208.056H195.41V187.051Z" fill="#D7E9FF"/>
<path d="M122.202 179.183H85.6043C84.1597 179.183 82.9899 178.01 82.9899 176.56C82.9899 172.221 79.4719 168.691 75.1472 168.691C73.702 168.691 72.5328 167.518 72.5328 166.068V118.855C72.5328 117.405 73.702 116.232 75.1472 116.232C79.4719 116.232 82.9899 112.702 82.9899 108.362C82.9899 106.913 84.1597 105.739 85.6043 105.739H122.202C123.647 105.739 124.817 106.912 124.817 108.362C124.817 109.812 123.648 110.985 122.202 110.985H87.9551C86.9135 116.119 82.8747 120.166 77.761 121.216V163.706C82.8747 164.756 86.9135 168.804 87.9551 173.937H122.202C123.647 173.937 124.817 175.11 124.817 176.56C124.816 178.01 123.647 179.183 122.202 179.183Z" fill="#4563AA"/>
<path d="M122.202 200.167H64.6895C63.2442 200.167 62.0751 198.994 62.0751 197.544C62.0751 196.094 63.2442 194.921 64.6895 194.921H122.202C123.647 194.921 124.817 196.094 124.817 197.544C124.816 198.994 123.647 200.167 122.202 200.167Z" fill="#4563AA"/>
<path d="M122.202 210.679H64.6895C63.2442 210.679 62.0751 209.506 62.0751 208.056C62.0751 206.607 63.2442 205.434 64.6895 205.434H122.202C123.647 205.434 124.817 206.607 124.817 208.056C124.816 209.506 123.647 210.679 122.202 210.679Z" fill="#4563AA"/>
<path d="M127.431 210.679C125.986 210.679 124.817 209.506 124.817 208.056L124.816 97.8708C124.816 96.4214 125.985 95.2477 127.431 95.2477C128.876 95.2477 130.045 96.4207 130.045 97.8708V208.056C130.045 209.506 128.876 210.679 127.431 210.679Z" fill="#4563AA"/>
<path d="M122.202 189.675H64.6895C63.2442 189.675 62.0751 188.502 62.0751 187.052C62.0751 185.603 63.2442 184.43 64.6895 184.43H122.202C123.647 184.43 124.817 185.603 124.817 187.052C124.816 188.502 123.647 189.675 122.202 189.675Z" fill="#4563AA"/>
<path d="M64.6895 189.675C63.2442 189.675 62.0751 188.502 62.0751 187.052L62.0745 97.8709C62.0745 96.4216 63.2436 95.2479 64.6889 95.2479C66.1335 95.2479 67.3033 96.4209 67.3033 97.8709V187.052C67.3033 188.502 66.1348 189.675 64.6895 189.675Z" fill="#4563AA"/>
<path d="M122.203 100.493H64.6897C63.2444 100.493 62.0753 99.3202 62.0753 97.8701C62.0753 96.4201 63.2444 95.2471 64.6897 95.2471H122.203C123.647 95.2471 124.817 96.4201 124.817 97.8701C124.817 99.3202 123.647 100.493 122.203 100.493Z" fill="#4563AA"/>
<path d="M237.236 179.183H200.635C199.19 179.183 198.021 178.01 198.021 176.56C198.021 175.11 199.19 173.937 200.635 173.937H234.882C235.93 168.804 239.963 164.756 245.08 163.706V121.216C239.963 120.166 235.93 116.119 234.882 110.985H200.635C199.19 110.985 198.021 109.812 198.021 108.362C198.021 106.912 199.19 105.739 200.635 105.739H237.236C238.681 105.739 239.85 106.912 239.85 108.362C239.85 112.701 243.369 116.232 247.693 116.232C249.138 116.232 250.307 117.405 250.307 118.855V166.068C250.307 167.518 249.138 168.691 247.693 168.691C243.369 168.691 239.85 172.221 239.85 176.56C239.85 178.01 238.681 179.183 237.236 179.183Z" fill="#4563AA"/>
<path d="M258.151 200.167H200.635C199.19 200.167 198.021 198.994 198.021 197.544C198.021 196.094 199.19 194.921 200.635 194.921H258.151C259.596 194.921 260.765 196.094 260.765 197.544C260.765 198.994 259.596 200.167 258.151 200.167Z" fill="#4563AA"/>
<path d="M258.151 210.679H200.635C199.19 210.679 198.021 209.506 198.021 208.056C198.021 206.607 199.19 205.434 200.635 205.434H258.151C259.596 205.434 260.765 206.607 260.765 208.056C260.765 209.506 259.596 210.679 258.151 210.679Z" fill="#4563AA"/>
<path d="M195.406 210.679C193.961 210.679 192.792 209.506 192.792 208.056V97.8708C192.792 96.4214 193.961 95.2477 195.406 95.2477C196.851 95.2477 198.02 96.4207 198.02 97.8708L198.021 208.056C198.021 209.506 196.851 210.679 195.406 210.679Z" fill="#4563AA"/>
<path d="M258.151 189.675H200.635C199.19 189.675 198.021 188.502 198.021 187.052C198.021 185.603 199.19 184.43 200.635 184.43H258.151C259.596 184.43 260.765 185.603 260.765 187.052C260.765 188.502 259.596 189.675 258.151 189.675Z" fill="#4563AA"/>
<path d="M258.151 189.675C256.706 189.675 255.537 188.502 255.537 187.052V97.8708C255.537 96.4214 256.706 95.2477 258.151 95.2477C259.596 95.2477 260.765 96.4207 260.765 97.8708L260.765 187.052C260.765 188.502 259.596 189.675 258.151 189.675Z" fill="#4563AA"/>
<path d="M258.151 100.493H200.635C199.19 100.493 198.02 99.3208 198.02 97.8708C198.02 96.4207 199.19 95.2471 200.635 95.2471L258.151 95.2477C259.596 95.2477 260.765 96.4207 260.765 97.8708C260.765 99.3208 259.596 100.493 258.151 100.493Z" fill="#4563AA"/>
<path d="M195.406 100.493H127.431C125.986 100.493 124.816 99.3208 124.816 97.8708C124.816 96.4214 125.985 95.2477 127.431 95.2477H195.406C196.851 95.2477 198.02 96.4207 198.02 97.8708C198.02 99.3208 196.851 100.493 195.406 100.493Z" fill="#4563AA"/>
<path d="M184.949 189.675H137.888C136.443 189.675 135.273 188.502 135.273 187.052C135.273 185.603 136.443 184.43 137.888 184.43H184.949C186.394 184.43 187.563 185.603 187.563 187.052C187.563 188.502 186.394 189.675 184.949 189.675Z" fill="#4563AA"/>
<path d="M195.406 210.679H127.431C125.986 210.679 124.817 209.506 124.817 208.056C124.817 206.607 125.985 205.434 127.431 205.434H195.406C196.851 205.434 198.021 206.607 198.021 208.056C198.021 209.506 196.851 210.679 195.406 210.679Z" fill="#4563AA"/>
<path d="M103.901 152.953C98.1368 152.953 93.4464 148.245 93.4464 142.461C93.4464 136.677 98.1368 131.969 103.901 131.969C109.669 131.969 114.359 136.677 114.359 142.461C114.359 148.245 109.669 152.953 103.901 152.953ZM103.901 137.215C101.019 137.215 98.6752 139.567 98.6752 142.462C98.6752 145.356 101.019 147.708 103.901 147.708C106.784 147.708 109.13 145.356 109.13 142.462C109.13 139.567 106.784 137.215 103.901 137.215Z" fill="#4563AA"/>
<path d="M218.935 152.953C213.17 152.953 208.478 148.245 208.478 142.461C208.478 136.677 213.171 131.969 218.935 131.969C224.7 131.969 229.392 136.677 229.392 142.461C229.392 148.245 224.701 152.953 218.935 152.953ZM218.935 137.215C216.051 137.215 213.707 139.567 213.707 142.462C213.707 145.356 216.051 147.708 218.935 147.708C221.82 147.708 224.163 145.356 224.163 142.462C224.163 139.567 221.82 137.215 218.935 137.215Z" fill="#4563AA"/>
<path d="M161.963 135.681C155.71 134.952 155.71 134.56 155.71 132.88C155.71 129.743 165.09 128.847 167.658 132.432C169.2 135.123 172.624 136.051 175.307 134.504C177.989 132.958 178.914 129.522 177.372 126.83C174.958 123.13 171.186 120.533 166.876 119.604C167.006 117.603 166.061 115.685 164.399 114.571C162.736 113.458 160.608 113.319 158.816 114.207C157.024 115.095 155.84 116.875 155.71 118.876V119.66C149.391 120.95 144.776 126.415 144.544 132.88C144.544 144.811 155.375 146.211 160.623 146.828C166.876 147.612 166.876 148.004 166.876 149.684C166.876 151.365 163.861 152.485 161.293 152.485C158.819 152.589 156.35 152.189 154.035 151.309C151.858 149.137 148.341 149.137 146.163 151.309C145.106 152.361 144.512 153.792 144.512 155.286C144.512 156.779 145.106 158.211 146.163 159.263C148.887 161.501 152.207 162.884 155.71 163.24C155.63 165.241 156.621 167.133 158.308 168.203C159.996 169.273 162.124 169.358 163.891 168.427C165.659 167.496 166.796 165.689 166.876 163.688V162.96C173.295 161.802 177.984 156.227 178.042 149.684C178.042 137.753 167.211 136.353 161.963 135.681Z" fill="#4563AA"/>
<path fill-rule="evenodd" clip-rule="evenodd" d="M290.163 90.4645L321.982 122.284C323.935 124.237 323.935 127.403 321.982 129.355L290.163 161.175C288.21 163.128 285.044 163.128 283.091 161.175C281.139 159.223 281.139 156.057 283.091 154.104L306.376 130.82H261C258.239 130.82 256 128.581 256 125.82C256 123.058 258.239 120.82 261 120.82H306.376L283.091 97.5355C281.139 95.5829 281.139 92.4171 283.091 90.4645C285.044 88.5118 288.21 88.5118 290.163 90.4645Z" fill="#4563AA"/>
<path fill-rule="evenodd" clip-rule="evenodd" d="M33.2843 203.756L1.46446 171.936C-0.488159 169.984 -0.488159 166.818 1.46446 164.865L33.2843 133.046C35.2369 131.093 38.4027 131.093 40.3553 133.046C42.308 134.998 42.308 138.164 40.3553 140.117L17.0711 163.401H62.0745C64.8359 163.401 67.0745 165.639 67.0745 168.401C67.0745 171.162 64.8359 173.401 62.0745 173.401H17.0711L40.3553 196.685C42.308 198.638 42.308 201.804 40.3553 203.756C38.4027 205.709 35.2369 205.709 33.2843 203.756Z" fill="#4563AA"/>
</svg>
