<svg width="871" height="1017" viewBox="0 0 871 1017" fill="none" xmlns="http://www.w3.org/2000/svg">
<g clip-path="url(#clip0_7_35197)">
<path d="M871 0H-1V1017H871V0Z" fill="#A8B6D4"/>
<g filter="url(#filter0_d_7_35197)">
<path d="M-0.404113 770C-5.37641 770 -10.1412 768.024 -13.6561 764.515L-256.513 521.748C-260.028 518.235 -262 513.472 -262 508.501C-262 503.531 -260.024 498.768 -256.513 495.254L-13.6561 252.487C-6.33753 245.171 5.5293 245.171 12.8479 252.487L255.705 495.254C263.024 502.57 263.024 514.432 255.705 521.748L12.8479 764.515C9.33297 768.024 4.56367 770 -0.404113 770ZM-216.762 508.497L-0.404113 724.774L215.949 508.497L-0.404113 292.223L-216.762 508.497Z" fill="white"/>
<path d="M-0.43615 328.968L-180.035 508.5L-0.43615 688.032L179.162 508.5L-0.43615 328.968Z" fill="white"/>
<path d="M343.363 438.5L335.872 412.318H341.919L346.253 430.51H346.47L351.251 412.318H356.429L361.197 430.548H361.427L365.761 412.318H371.808L364.316 438.5H358.922L353.936 421.382H353.731L348.758 438.5H343.363ZM374.771 438.5V412.318H392.413V416.882H380.306V423.121H391.505V427.685H380.306V433.936H392.464V438.5H374.771ZM396.814 438.5V412.318H402.349V433.936H413.574V438.5H396.814ZM439.321 421.484H433.721C433.619 420.76 433.41 420.116 433.095 419.554C432.78 418.983 432.375 418.497 431.88 418.097C431.386 417.696 430.815 417.389 430.167 417.176C429.528 416.963 428.834 416.857 428.084 416.857C426.728 416.857 425.548 417.193 424.542 417.866C423.537 418.531 422.757 419.503 422.203 420.781C421.649 422.051 421.372 423.594 421.372 425.409C421.372 427.276 421.649 428.844 422.203 430.114C422.765 431.384 423.549 432.342 424.555 432.99C425.561 433.638 426.724 433.962 428.045 433.962C428.787 433.962 429.473 433.864 430.103 433.668C430.743 433.472 431.309 433.186 431.804 432.811C432.298 432.428 432.707 431.963 433.031 431.418C433.363 430.872 433.593 430.25 433.721 429.551L439.321 429.577C439.176 430.778 438.814 431.938 438.234 433.054C437.663 434.162 436.892 435.155 435.92 436.033C434.957 436.902 433.807 437.592 432.468 438.104C431.139 438.607 429.635 438.858 427.956 438.858C425.62 438.858 423.532 438.33 421.691 437.273C419.859 436.216 418.41 434.686 417.345 432.683C416.288 430.68 415.76 428.256 415.76 425.409C415.76 422.554 416.297 420.125 417.37 418.122C418.444 416.119 419.902 414.594 421.743 413.545C423.584 412.489 425.655 411.96 427.956 411.96C429.473 411.96 430.879 412.173 432.174 412.599C433.478 413.026 434.633 413.648 435.639 414.466C436.645 415.276 437.463 416.268 438.093 417.445C438.733 418.621 439.142 419.967 439.321 421.484ZM467.35 425.409C467.35 428.264 466.809 430.693 465.726 432.696C464.652 434.699 463.187 436.229 461.329 437.286C459.479 438.334 457.4 438.858 455.09 438.858C452.763 438.858 450.675 438.33 448.826 437.273C446.976 436.216 445.515 434.686 444.441 432.683C443.367 430.68 442.83 428.256 442.83 425.409C442.83 422.554 443.367 420.125 444.441 418.122C445.515 416.119 446.976 414.594 448.826 413.545C450.675 412.489 452.763 411.96 455.09 411.96C457.4 411.96 459.479 412.489 461.329 413.545C463.187 414.594 464.652 416.119 465.726 418.122C466.809 420.125 467.35 422.554 467.35 425.409ZM461.738 425.409C461.738 423.56 461.461 422 460.907 420.73C460.361 419.46 459.59 418.497 458.593 417.841C457.596 417.185 456.428 416.857 455.09 416.857C453.752 416.857 452.584 417.185 451.587 417.841C450.59 418.497 449.814 419.46 449.26 420.73C448.715 422 448.442 423.56 448.442 425.409C448.442 427.259 448.715 428.818 449.26 430.088C449.814 431.358 450.59 432.321 451.587 432.977C452.584 433.634 453.752 433.962 455.09 433.962C456.428 433.962 457.596 433.634 458.593 432.977C459.59 432.321 460.361 431.358 460.907 430.088C461.461 428.818 461.738 427.259 461.738 425.409ZM471.45 412.318H478.277L485.487 429.909H485.794L493.004 412.318H499.831V438.5H494.462V421.459H494.244L487.469 438.372H483.813L477.037 421.395H476.82V438.5H471.45V412.318ZM504.392 438.5V412.318H522.034V416.882H509.927V423.121H521.126V427.685H509.927V433.936H522.085V438.5H504.392ZM542.102 416.882V412.318H563.604V416.882H555.589V438.5H550.117V416.882H542.102ZM590.01 425.409C590.01 428.264 589.469 430.693 588.386 432.696C587.313 434.699 585.847 436.229 583.989 437.286C582.139 438.334 580.06 438.858 577.75 438.858C575.423 438.858 573.335 438.33 571.486 437.273C569.636 436.216 568.175 434.686 567.101 432.683C566.027 430.68 565.49 428.256 565.49 425.409C565.49 422.554 566.027 420.125 567.101 418.122C568.175 416.119 569.636 414.594 571.486 413.545C573.335 412.489 575.423 411.96 577.75 411.96C580.06 411.96 582.139 412.489 583.989 413.545C585.847 414.594 587.313 416.119 588.386 418.122C589.469 420.125 590.01 422.554 590.01 425.409ZM584.398 425.409C584.398 423.56 584.121 422 583.567 420.73C583.021 419.46 582.25 418.497 581.253 417.841C580.256 417.185 579.088 416.857 577.75 416.857C576.412 416.857 575.244 417.185 574.247 417.841C573.25 418.497 572.475 419.46 571.921 420.73C571.375 422 571.102 423.56 571.102 425.409C571.102 427.259 571.375 428.818 571.921 430.088C572.475 431.358 573.25 432.321 574.247 432.977C575.244 433.634 576.412 433.962 577.75 433.962C579.088 433.962 580.256 433.634 581.253 432.977C582.25 432.321 583.021 431.358 583.567 430.088C584.121 428.818 584.398 427.259 584.398 425.409Z" fill="white"/>
<path d="M329.263 543.5V473.682H357.217C362.353 473.682 366.638 474.443 370.069 475.966C373.501 477.489 376.081 479.602 377.808 482.307C379.535 484.989 380.399 488.08 380.399 491.58C380.399 494.307 379.853 496.705 378.763 498.773C377.672 500.818 376.172 502.5 374.263 503.818C372.376 505.114 370.217 506.034 367.785 506.58V507.261C370.444 507.375 372.933 508.125 375.251 509.511C377.592 510.898 379.49 512.841 380.944 515.341C382.399 517.818 383.126 520.773 383.126 524.205C383.126 527.909 382.206 531.216 380.365 534.125C378.547 537.011 375.853 539.295 372.285 540.977C368.717 542.659 364.319 543.5 359.092 543.5H329.263ZM344.024 531.432H356.058C360.172 531.432 363.172 530.648 365.058 529.08C366.944 527.489 367.888 525.375 367.888 522.739C367.888 520.807 367.422 519.102 366.49 517.625C365.558 516.148 364.228 514.989 362.501 514.148C360.797 513.307 358.763 512.886 356.399 512.886H344.024V531.432ZM344.024 502.898H354.967C356.99 502.898 358.785 502.545 360.353 501.841C361.944 501.114 363.194 500.091 364.103 498.773C365.035 497.455 365.501 495.875 365.501 494.034C365.501 491.511 364.603 489.477 362.808 487.932C361.035 486.386 358.513 485.614 355.24 485.614H344.024V502.898ZM392.731 473.682H410.936L430.163 520.591H430.981L450.209 473.682H468.413V543.5H454.095V498.057H453.515L435.447 543.159H425.697L407.629 497.886H407.049V543.5H392.731V473.682ZM502.794 543.5V473.682H530.748C535.885 473.682 540.169 474.443 543.601 475.966C547.032 477.489 549.612 479.602 551.339 482.307C553.066 484.989 553.93 488.08 553.93 491.58C553.93 494.307 553.385 496.705 552.294 498.773C551.203 500.818 549.703 502.5 547.794 503.818C545.907 505.114 543.748 506.034 541.316 506.58V507.261C543.976 507.375 546.464 508.125 548.782 509.511C551.123 510.898 553.021 512.841 554.476 515.341C555.93 517.818 556.657 520.773 556.657 524.205C556.657 527.909 555.737 531.216 553.896 534.125C552.078 537.011 549.385 539.295 545.816 540.977C542.248 542.659 537.851 543.5 532.623 543.5H502.794ZM517.555 531.432H529.589C533.703 531.432 536.703 530.648 538.589 529.08C540.476 527.489 541.419 525.375 541.419 522.739C541.419 520.807 540.953 519.102 540.021 517.625C539.089 516.148 537.76 514.989 536.032 514.148C534.328 513.307 532.294 512.886 529.93 512.886H517.555V531.432ZM517.555 502.898H528.498C530.521 502.898 532.316 502.545 533.885 501.841C535.476 501.114 536.726 500.091 537.635 498.773C538.566 497.455 539.032 495.875 539.032 494.034C539.032 491.511 538.135 489.477 536.339 487.932C534.566 486.386 532.044 485.614 528.771 485.614H517.555V502.898ZM578.297 543.5H562.478L586.581 473.682H605.603L629.672 543.5H613.853L596.365 489.636H595.819L578.297 543.5ZM577.308 516.057H614.672V527.58H577.308V516.057ZM696.473 473.682V543.5H683.723L653.348 499.557H652.836V543.5H638.075V473.682H651.03L681.166 517.591H681.78V473.682H696.473ZM708.669 543.5V473.682H723.43V504.466H724.351L749.476 473.682H767.169L741.26 504.943L767.476 543.5H749.816L730.691 514.795L723.43 523.659V543.5H708.669Z" fill="white"/>
</g>
</g>
<defs>
<filter id="filter0_d_7_35197" x="-266" y="247" width="1039.19" height="531" filterUnits="userSpaceOnUse" color-interpolation-filters="sRGB">
<feFlood flood-opacity="0" result="BackgroundImageFix"/>
<feColorMatrix in="SourceAlpha" type="matrix" values="0 0 0 0 0 0 0 0 0 0 0 0 0 0 0 0 0 0 127 0" result="hardAlpha"/>
<feOffset dy="4"/>
<feGaussianBlur stdDeviation="2"/>
<feComposite in2="hardAlpha" operator="out"/>
<feColorMatrix type="matrix" values="0 0 0 0 0 0 0 0 0 0 0 0 0 0 0 0 0 0 0.25 0"/>
<feBlend mode="normal" in2="BackgroundImageFix" result="effect1_dropShadow_7_35197"/>
<feBlend mode="normal" in="SourceGraphic" in2="effect1_dropShadow_7_35197" result="shape"/>
</filter>
<clipPath id="clip0_7_35197">
<rect width="871" height="1017" fill="white"/>
</clipPath>
</defs>
</svg>
