<svg width="197" height="197" viewBox="0 0 197 197" fill="none" xmlns="http://www.w3.org/2000/svg">
<g clip-path="url(#clip0_9_38826)">
<path d="M39.3999 75.5171H157.6V88.6504H39.3999V75.5171Z" fill="#CAD9FC"/>
<path d="M124.767 29.5504C124.763 43.4155 113.984 54.8903 100.146 55.7593C86.3084 56.6282 74.1782 46.5921 72.4404 32.8364C70.7026 19.0806 79.9558 6.34312 93.575 3.74341C101.266 2.27528 109.211 4.31498 115.244 9.30638C121.277 14.2978 124.768 21.7204 124.767 29.5504Z" fill="#CAD9FC"/>
<path d="M93.5749 55.3577C105.362 55.3577 114.917 43.8035 114.917 29.5507C114.917 15.2978 105.362 3.74365 93.5749 3.74365C81.7883 3.74365 72.2333 15.2978 72.2333 29.5507C72.2333 43.8035 81.7883 55.3577 93.5749 55.3577Z" fill="#E8EDFC"/>
<path d="M157.6 55.8169H39.3999C35.7732 55.8169 32.8333 58.7569 32.8333 62.3836V68.9502C32.8333 72.5769 35.7732 75.5169 39.3999 75.5169H157.6C161.227 75.5169 164.167 72.5769 164.167 68.9502V62.3836C164.167 58.7569 161.227 55.8169 157.6 55.8169Z" fill="#CAD9FC"/>
<path d="M147.75 55.8169H39.3999C35.7732 55.8169 32.8333 58.7569 32.8333 62.3836V68.9502C32.8333 72.5769 35.7732 75.5169 39.3999 75.5169H147.75C151.377 75.5169 154.317 72.5769 154.317 68.9502V62.3836C154.317 58.7569 151.377 55.8169 147.75 55.8169Z" fill="#E8EDFC"/>
<path d="M164.167 95.2173V187.151C164.167 190.777 161.227 193.717 157.6 193.717H39.3999C35.7732 193.717 32.8333 190.777 32.8333 187.151V95.2173C32.8333 91.5906 35.7732 88.6506 39.3999 88.6506C165.611 88.6506 158.388 88.4536 159.865 89.0774C162.441 90.0242 164.157 92.473 164.167 95.2173Z" fill="#CAD9FC"/>
<path d="M154.317 95.2173V187.151C154.317 190.777 151.377 193.717 147.75 193.717H39.3999C35.7732 193.717 32.8333 190.777 32.8333 187.151V95.2173C32.8333 91.5906 35.7732 88.6506 39.3999 88.6506C155.302 88.6506 148.538 88.4536 150.015 89.0774C152.591 90.0242 154.307 92.473 154.317 95.2173Z" fill="#E8EDFC"/>
<path d="M114.917 174.017H62.3832C58.7565 174.017 55.8165 176.957 55.8165 180.584V187.15C55.8165 190.777 58.7565 193.717 62.3832 193.717H114.917C118.543 193.717 121.483 190.777 121.483 187.15V180.584C121.483 176.957 118.543 174.017 114.917 174.017Z" fill="#CAD9FC"/>
<path d="M137.9 154.317H85.3666C81.7399 154.317 78.7999 157.257 78.7999 160.884V167.45C78.7999 171.077 81.7399 174.017 85.3666 174.017H137.9C141.527 174.017 144.467 171.077 144.467 167.45V160.884C144.467 157.257 141.527 154.317 137.9 154.317Z" fill="#CAD9FC"/>
<path d="M117.313 111.01L114.03 105.166C113.175 103.644 111.748 102.525 110.066 102.056C108.385 101.588 106.585 101.809 105.067 102.67C80.5401 116.887 71.8064 121.976 59.0999 129.364C55.9285 131.245 54.8478 135.319 56.6702 138.524L59.9535 144.369C60.8089 145.909 62.247 147.04 63.9449 147.509C65.6428 147.979 67.458 147.746 68.9827 146.864C93.1809 132.844 102.374 127.459 114.949 120.17C118.097 118.268 119.147 114.198 117.313 111.01Z" fill="#CAD9FC"/>
<path d="M32.8333 95.2169V187.15C32.8333 190.777 35.7732 193.717 39.3999 193.717H49.2499C45.6232 193.717 42.6833 190.777 42.6833 187.15V95.2169C42.6833 91.5902 45.6232 88.6502 49.2499 88.6502V75.5169C45.6232 75.5169 42.6833 72.5769 42.6833 68.9502V62.3836C42.6833 58.7569 45.6232 55.8169 49.2499 55.8169H39.3999C35.7732 55.8169 32.8333 58.7569 32.8333 62.3836V68.9502C32.8333 72.5769 35.7732 75.5169 39.3999 75.5169V88.6502C35.7732 88.6502 32.8333 91.5902 32.8333 95.2169Z" fill="white"/>
<path d="M103.359 3.77606C89.3195 1.4956 76.0154 10.8048 73.3475 24.776C70.6795 38.7473 79.6171 52.3038 93.5092 55.3572C96.7636 55.9736 100.105 55.9736 103.359 55.3572C91.0398 52.9374 82.1552 42.1379 82.1552 29.5831C82.1552 17.0282 91.0398 6.2287 103.359 3.80889V3.77606Z" fill="white"/>
<path d="M29.5499 160.883H36.1166V187.15H29.5499V160.883Z" fill="white"/>
<path d="M98.8939 26.2667C95.2166 25.8399 95.2166 25.61 95.2166 24.625C95.2166 22.7864 100.733 22.261 102.243 24.3624C103.15 25.94 105.163 26.4839 106.741 25.5772C108.319 24.6705 108.863 22.6566 107.956 21.079C106.536 18.9099 104.318 17.388 101.783 16.8435C101.859 15.6705 101.304 14.5459 100.326 13.8934C99.3486 13.2408 98.097 13.1595 97.0431 13.68C95.9891 14.2004 95.2928 15.2437 95.2166 16.4167V16.8764C91.5006 17.6323 88.7861 20.8354 88.6499 24.625C88.6499 31.6185 95.0196 32.4394 98.1059 32.8005C101.783 33.2602 101.783 33.49 101.783 34.475C101.783 35.46 100.01 36.1167 98.4999 36.1167C97.0451 36.1778 95.5931 35.9432 94.2316 35.4272C92.9509 34.1542 90.8827 34.1542 89.6021 35.4272C88.9805 36.0437 88.6309 36.8829 88.6309 37.7584C88.6309 38.6338 88.9805 39.473 89.6021 40.0895C91.204 41.4012 93.1567 42.212 95.2166 42.4207C95.1696 43.5937 95.7521 44.7027 96.7445 45.3298C97.7369 45.957 98.9885 46.007 100.028 45.4612C101.067 44.9153 101.736 43.8564 101.783 42.6834V42.2565C105.558 41.578 108.316 38.31 108.35 34.475C108.35 27.4815 101.98 26.6607 98.8939 26.2667Z" fill="#4563AA"/>
<path d="M32.8333 177.3C31.0199 177.3 29.5499 175.83 29.5499 174.017C29.5499 172.203 31.0199 170.733 32.8333 170.733C34.6466 170.733 36.1166 172.203 36.1166 174.017C36.1166 175.83 34.6466 177.3 32.8333 177.3Z" fill="#4563AA"/>
<path d="M39.3999 197H157.6C163.04 197 167.45 192.59 167.45 187.15V95.2168C167.438 91.0527 164.809 87.3459 160.883 85.9578V78.2092C164.809 76.8211 167.438 73.1143 167.45 68.9502V62.3835C167.45 56.9435 163.04 52.5335 157.6 52.5335H117.018C126.787 44.6777 130.536 31.513 126.372 19.6891C122.207 7.86517 111.036 -0.0444336 98.4999 -0.0444336C85.9641 -0.0444336 74.7925 7.86517 70.6281 19.6891C66.4637 31.513 70.2129 44.6777 79.9819 52.5335H39.3999C33.9599 52.5335 29.5499 56.9435 29.5499 62.3835V68.9502C29.5616 73.1143 32.1906 76.8211 36.1166 78.2092V85.9578C32.1906 87.3459 29.5616 91.0527 29.5499 95.2168V160.884C29.5499 162.697 31.0199 164.167 32.8333 164.167C34.6466 164.167 36.1166 162.697 36.1166 160.884V95.2168C36.1166 93.4035 37.5866 91.9335 39.3999 91.9335H157.6C159.413 91.9335 160.883 93.4035 160.883 95.2168V187.15C160.883 188.963 159.413 190.433 157.6 190.433H124.176C124.558 189.381 124.758 188.27 124.767 187.15C124.767 180.255 124.964 179.533 124.176 177.3H137.9C143.34 177.3 147.75 172.89 147.75 167.45V160.884C147.75 155.443 143.34 151.034 137.9 151.034H85.3666C79.9266 151.034 75.5166 155.443 75.5166 160.884C75.5166 167.778 75.3196 168.501 76.1076 170.733H62.3833C56.9433 170.733 52.5333 175.143 52.5333 180.583C52.5333 187.478 52.3363 188.201 53.1243 190.433H39.3999C37.5866 190.433 36.1166 188.963 36.1166 187.15C36.1166 185.337 34.6466 183.867 32.8333 183.867C26.5621 183.867 29.5499 197 39.3999 197ZM75.5166 29.5502C75.5166 16.8568 85.8066 6.56684 98.4999 6.56684C111.193 6.56684 121.483 16.8568 121.483 29.5502C121.483 42.2435 111.193 52.5335 98.4999 52.5335C85.8066 52.5335 75.5166 42.2435 75.5166 29.5502ZM36.1166 62.3835C36.1166 60.5702 37.5866 59.1002 39.3999 59.1002H157.6C159.413 59.1002 160.883 60.5702 160.883 62.3835V68.9502C160.883 70.7635 159.413 72.2335 157.6 72.2335H39.3999C37.5866 72.2335 36.1166 70.7635 36.1166 68.9502V62.3835ZM42.6833 85.3668V78.8002H154.317V85.3668H42.6833ZM91.9333 177.3V190.433H85.3666V177.3H91.9333ZM95.2166 157.6H101.783V170.733H95.2166V157.6ZM114.917 170.733H108.35V157.6H114.917V170.733ZM121.483 157.6H128.05V170.733H121.483V157.6ZM105.067 190.433H98.4999V177.3H105.067V190.433ZM78.7999 190.433H72.2333V177.3H78.7999V190.433ZM111.633 190.433V177.3H114.917C116.73 177.3 118.2 178.77 118.2 180.583V187.15C118.2 188.963 116.73 190.433 114.917 190.433H111.633ZM141.183 160.884V167.45C141.183 169.264 139.713 170.733 137.9 170.733H134.617V157.6H137.9C139.713 157.6 141.183 159.07 141.183 160.884ZM82.0833 160.884C82.0833 159.07 83.5533 157.6 85.3666 157.6H88.6499V170.733H85.3666C83.5533 170.733 82.0833 169.264 82.0833 167.45V160.884ZM59.0999 187.15V180.583C59.0999 178.77 60.5699 177.3 62.3833 177.3H65.6666V190.433H62.3833C60.5699 190.433 59.0999 188.963 59.0999 187.15Z" fill="#4563AA"/>
<path d="M53.8138 140.133L57.0971 145.977C58.3857 148.277 60.5425 149.964 63.0848 150.662C65.6271 151.359 68.3429 151.008 70.6245 149.688C152.97 101.817 93.6078 136.554 116.591 123.027C121.293 120.221 122.92 114.191 120.268 109.401L116.985 103.557C115.697 101.257 113.54 99.5696 110.997 98.8723C108.455 98.175 105.739 98.5259 103.458 99.8465L57.4911 126.507C52.7895 129.313 51.1621 135.343 53.8138 140.133ZM75.1226 123.716L81.6893 135.504L75.8778 138.787L69.3111 127L75.1226 123.716ZM86.6143 117.15L93.181 128.937L87.3695 132.22L80.8028 120.433L86.6143 117.15ZM98.0731 110.583L104.64 122.37L98.8611 125.654L92.2945 113.866L98.0731 110.583ZM108.35 105.067C109.541 105.076 110.635 105.729 111.206 106.774L114.49 112.619C115.438 114.271 114.882 116.378 113.242 117.347L110.386 118.988L103.819 107.234C106.971 105.363 107.234 105.067 108.35 105.067ZM60.8073 132.187L63.6638 130.546L70.2305 142.3C67.571 143.876 66.5203 144.828 64.813 144.336C63.1056 143.843 62.8758 142.924 59.5268 136.915C58.5846 135.255 59.1559 133.145 60.8073 132.187Z" fill="#4563AA"/>
<path d="M72.2332 98.5H48.5932C45.3367 98.5179 42.7012 101.153 42.6832 104.41V128.05C42.6832 129.863 44.1532 131.333 45.9666 131.333C47.7799 131.333 49.2499 129.863 49.2499 128.05V105.067H72.2332C74.0466 105.067 75.5166 103.597 75.5166 101.783C75.5166 99.97 74.0466 98.5 72.2332 98.5Z" fill="#4563AA"/>
<path d="M42.6832 160.884C42.6832 162.697 44.1532 164.167 45.9666 164.167C47.7799 164.167 49.2499 162.697 49.2499 160.884V154.317C49.2499 152.504 47.7799 151.034 45.9666 151.034C44.1532 151.034 42.6832 152.504 42.6832 154.317V160.884Z" fill="#4563AA"/>
<path d="M141.183 26.2667V3.28333C141.183 1.47 139.713 0 137.9 0C136.087 0 134.617 1.47 134.617 3.28333V26.2667C134.617 28.08 136.087 29.55 137.9 29.55C139.713 29.55 141.183 28.08 141.183 26.2667Z" fill="#4563AA"/>
<path d="M154.317 42.6837V19.7003C154.317 17.887 152.847 16.417 151.033 16.417C149.22 16.417 147.75 17.887 147.75 19.7003V42.6837C147.75 44.497 149.22 45.967 151.033 45.967C152.847 45.967 154.317 44.497 154.317 42.6837Z" fill="#4563AA"/>
<path d="M62.3833 26.2667V3.28333C62.3833 1.47 60.9133 0 59.1 0C57.2866 0 55.8167 1.47 55.8167 3.28333V26.2667C55.8167 28.08 57.2866 29.55 59.1 29.55C60.9133 29.55 62.3833 28.08 62.3833 26.2667Z" fill="#4563AA"/>
<path d="M49.2499 42.6837V19.7003C49.2499 17.887 47.7799 16.417 45.9666 16.417C44.1532 16.417 42.6832 17.887 42.6832 19.7003V42.6837C42.6832 44.497 44.1532 45.967 45.9666 45.967C47.7799 45.967 49.2499 44.497 49.2499 42.6837Z" fill="#4563AA"/>
</g>
<defs>
<clipPath id="clip0_9_38826">
<rect width="197" height="197" fill="white"/>
</clipPath>
</defs>
</svg>
