<svg width="363" height="436" viewBox="0 0 363 436" fill="none" xmlns="http://www.w3.org/2000/svg">
<rect width="363" height="436" rx="20" fill="white"/>
<g clip-path="url(#clip0_9_38791)">
<path d="M122.4 146.517H240.6V159.65H122.4V146.517Z" fill="#CAD9FC"/>
<path d="M207.767 100.55C207.763 114.415 196.984 125.89 183.146 126.759C169.308 127.628 157.178 117.592 155.44 103.836C153.703 90.0801 162.956 77.3426 176.575 74.7429C184.266 73.2748 192.211 75.3145 198.244 80.3059C204.277 85.2973 207.768 92.7199 207.767 100.55Z" fill="#CAD9FC"/>
<path d="M176.575 126.357C188.362 126.357 197.917 114.803 197.917 100.55C197.917 86.2971 188.362 74.7429 176.575 74.7429C164.788 74.7429 155.233 86.2971 155.233 100.55C155.233 114.803 164.788 126.357 176.575 126.357Z" fill="#E8EDFC"/>
<path d="M240.6 126.817H122.4C118.773 126.817 115.833 129.757 115.833 133.383V139.95C115.833 143.577 118.773 146.517 122.4 146.517H240.6C244.227 146.517 247.167 143.577 247.167 139.95V133.383C247.167 129.757 244.227 126.817 240.6 126.817Z" fill="#CAD9FC"/>
<path d="M230.75 126.817H122.4C118.773 126.817 115.833 129.757 115.833 133.383V139.95C115.833 143.577 118.773 146.517 122.4 146.517H230.75C234.377 146.517 237.317 143.577 237.317 139.95V133.383C237.317 129.757 234.377 126.817 230.75 126.817Z" fill="#E8EDFC"/>
<path d="M247.167 166.217V258.15C247.167 261.777 244.227 264.717 240.6 264.717H122.4C118.773 264.717 115.833 261.777 115.833 258.15V166.217C115.833 162.59 118.773 159.65 122.4 159.65C248.611 159.65 241.388 159.453 242.865 160.077C245.441 161.023 247.157 163.472 247.167 166.217Z" fill="#CAD9FC"/>
<path d="M237.317 166.217V258.15C237.317 261.777 234.377 264.717 230.75 264.717H122.4C118.773 264.717 115.833 261.777 115.833 258.15V166.217C115.833 162.59 118.773 159.65 122.4 159.65C238.302 159.65 231.538 159.453 233.015 160.077C235.591 161.023 237.307 163.472 237.317 166.217Z" fill="#E8EDFC"/>
<path d="M197.917 245.017H145.383C141.757 245.017 138.817 247.957 138.817 251.583V258.15C138.817 261.777 141.757 264.717 145.383 264.717H197.917C201.543 264.717 204.483 261.777 204.483 258.15V251.583C204.483 247.957 201.543 245.017 197.917 245.017Z" fill="#CAD9FC"/>
<path d="M220.9 225.317H168.367C164.74 225.317 161.8 228.257 161.8 231.883V238.45C161.8 242.077 164.74 245.017 168.367 245.017H220.9C224.527 245.017 227.467 242.077 227.467 238.45V231.883C227.467 228.257 224.527 225.317 220.9 225.317Z" fill="#CAD9FC"/>
<path d="M200.313 182.009L197.03 176.165C196.175 174.643 194.748 173.524 193.066 173.056C191.385 172.588 189.585 172.809 188.067 173.67C163.54 187.887 154.806 192.976 142.1 200.363C138.928 202.244 137.848 206.318 139.67 209.524L142.954 215.368C143.809 216.908 145.247 218.04 146.945 218.509C148.643 218.978 150.458 218.746 151.983 217.863C176.181 203.844 185.374 198.459 197.949 191.17C201.097 189.267 202.147 185.198 200.313 182.009Z" fill="#CAD9FC"/>
<path d="M115.833 166.217V258.15C115.833 261.777 118.773 264.717 122.4 264.717H132.25C128.623 264.717 125.683 261.777 125.683 258.15V166.217C125.683 162.59 128.623 159.65 132.25 159.65V146.517C128.623 146.517 125.683 143.577 125.683 139.95V133.383C125.683 129.757 128.623 126.817 132.25 126.817H122.4C118.773 126.817 115.833 129.757 115.833 133.383V139.95C115.833 143.577 118.773 146.517 122.4 146.517V159.65C118.773 159.65 115.833 162.59 115.833 166.217Z" fill="white"/>
<path d="M186.359 74.7758C172.32 72.4954 159.015 81.8046 156.347 95.7758C153.679 109.747 162.617 123.304 176.509 126.357C179.764 126.973 183.105 126.973 186.359 126.357C174.04 123.937 165.155 113.138 165.155 100.583C165.155 88.028 174.04 77.2285 186.359 74.8087V74.7758Z" fill="white"/>
<path d="M112.55 231.883H119.117V258.15H112.55V231.883Z" fill="white"/>
<path d="M181.894 97.2667C178.217 96.8399 178.217 96.61 178.217 95.625C178.217 93.7864 183.733 93.261 185.243 95.3624C186.15 96.94 188.163 97.4839 189.741 96.5772C191.319 95.6705 191.863 93.6566 190.956 92.079C189.536 89.9099 187.318 88.388 184.783 87.8435C184.859 86.6705 184.304 85.5459 183.326 84.8934C182.349 84.2408 181.097 84.1595 180.043 84.68C178.989 85.2004 178.293 86.2437 178.217 87.4167V87.8764C174.501 88.6323 171.786 91.8354 171.65 95.625C171.65 102.619 178.02 103.439 181.106 103.801C184.783 104.26 184.783 104.49 184.783 105.475C184.783 106.46 183.01 107.117 181.5 107.117C180.045 107.178 178.593 106.943 177.232 106.427C175.951 105.154 173.883 105.154 172.602 106.427C171.98 107.044 171.631 107.883 171.631 108.758C171.631 109.634 171.98 110.473 172.602 111.09C174.204 112.401 176.157 113.212 178.217 113.421C178.17 114.594 178.752 115.703 179.744 116.33C180.737 116.957 181.988 117.007 183.028 116.461C184.067 115.915 184.736 114.856 184.783 113.683V113.257C188.558 112.578 191.316 109.31 191.35 105.475C191.35 98.4815 184.98 97.6607 181.894 97.2667Z" fill="#4563AA"/>
<path d="M115.833 248.3C114.02 248.3 112.55 246.83 112.55 245.017C112.55 243.203 114.02 241.733 115.833 241.733C117.647 241.733 119.117 243.203 119.117 245.017C119.117 246.83 117.647 248.3 115.833 248.3Z" fill="#4563AA"/>
<path d="M122.4 268H240.6C246.04 268 250.45 263.59 250.45 258.15V166.217C250.438 162.052 247.809 158.346 243.883 156.958V149.209C247.809 147.821 250.438 144.114 250.45 139.95V133.383C250.45 127.943 246.04 123.533 240.6 123.533H200.018C209.787 115.677 213.536 102.513 209.372 90.6888C205.207 78.8649 194.036 70.9553 181.5 70.9553C168.964 70.9553 157.793 78.8649 153.628 90.6888C149.464 102.513 153.213 115.677 162.982 123.533H122.4C116.96 123.533 112.55 127.943 112.55 133.383V139.95C112.562 144.114 115.191 147.821 119.117 149.209V156.958C115.191 158.346 112.562 162.052 112.55 166.217V231.883C112.55 233.697 114.02 235.167 115.833 235.167C117.647 235.167 119.117 233.697 119.117 231.883V166.217C119.117 164.403 120.587 162.933 122.4 162.933H240.6C242.413 162.933 243.883 164.403 243.883 166.217V258.15C243.883 259.963 242.413 261.433 240.6 261.433H207.176C207.558 260.38 207.758 259.27 207.767 258.15C207.767 251.255 207.964 250.533 207.176 248.3H220.9C226.34 248.3 230.75 243.89 230.75 238.45V231.883C230.75 226.443 226.34 222.033 220.9 222.033H168.367C162.927 222.033 158.517 226.443 158.517 231.883C158.517 238.778 158.32 239.501 159.108 241.733H145.383C139.943 241.733 135.533 246.143 135.533 251.583C135.533 258.478 135.336 259.201 136.124 261.433H122.4C120.587 261.433 119.117 259.963 119.117 258.15C119.117 256.337 117.647 254.867 115.833 254.867C109.562 254.867 112.55 268 122.4 268ZM158.517 100.55C158.517 87.8566 168.807 77.5666 181.5 77.5666C194.193 77.5666 204.483 87.8566 204.483 100.55C204.483 113.243 194.193 123.533 181.5 123.533C168.807 123.533 158.517 113.243 158.517 100.55ZM119.117 133.383C119.117 131.57 120.587 130.1 122.4 130.1H240.6C242.413 130.1 243.883 131.57 243.883 133.383V139.95C243.883 141.763 242.413 143.233 240.6 143.233H122.4C120.587 143.233 119.117 141.763 119.117 139.95V133.383ZM125.683 156.367V149.8H237.317V156.367H125.683ZM174.933 248.3V261.433H168.367V248.3H174.933ZM178.217 228.6H184.783V241.733H178.217V228.6ZM197.917 241.733H191.35V228.6H197.917V241.733ZM204.483 228.6H211.05V241.733H204.483V228.6ZM188.067 261.433H181.5V248.3H188.067V261.433ZM161.8 261.433H155.233V248.3H161.8V261.433ZM194.633 261.433V248.3H197.917C199.73 248.3 201.2 249.77 201.2 251.583V258.15C201.2 259.963 199.73 261.433 197.917 261.433H194.633ZM224.183 231.883V238.45C224.183 240.263 222.713 241.733 220.9 241.733H217.617V228.6H220.9C222.713 228.6 224.183 230.07 224.183 231.883ZM165.083 231.883C165.083 230.07 166.553 228.6 168.367 228.6H171.65V241.733H168.367C166.553 241.733 165.083 240.263 165.083 238.45V231.883ZM142.1 258.15V251.583C142.1 249.77 143.57 248.3 145.383 248.3H148.667V261.433H145.383C143.57 261.433 142.1 259.963 142.1 258.15Z" fill="#4563AA"/>
<path d="M136.814 211.133L140.097 216.977C141.386 219.277 143.542 220.964 146.085 221.661C148.627 222.359 151.343 222.008 153.624 220.687C235.97 172.816 176.608 207.554 199.591 194.026C204.293 191.221 205.92 185.191 203.268 180.401L199.985 174.556C198.697 172.256 196.54 170.569 193.997 169.872C191.455 169.175 188.739 169.525 186.458 170.846L140.491 197.507C135.789 200.312 134.162 206.342 136.814 211.133ZM158.123 194.716L164.689 206.503L158.878 209.786L152.311 197.999L158.123 194.716ZM169.614 188.149L176.181 199.936L170.369 203.22L163.803 191.433L169.614 188.149ZM181.073 181.583L187.64 193.37L181.861 196.653L175.294 184.866L181.073 181.583ZM191.35 176.067C192.541 176.075 193.635 176.729 194.206 177.774L197.49 183.618C198.438 185.27 197.882 187.377 196.242 188.346L193.386 189.988L186.819 178.234C189.971 176.362 190.234 176.067 191.35 176.067ZM143.807 203.187L146.664 201.545L153.23 213.3C150.571 214.876 149.52 215.828 147.813 215.335C146.106 214.843 145.876 213.923 142.527 207.915C141.585 206.254 142.156 204.145 143.807 203.187Z" fill="#4563AA"/>
<path d="M155.233 169.5H131.593C128.337 169.518 125.701 172.153 125.683 175.41V199.05C125.683 200.863 127.153 202.333 128.967 202.333C130.78 202.333 132.25 200.863 132.25 199.05V176.067H155.233C157.047 176.067 158.517 174.597 158.517 172.783C158.517 170.97 157.047 169.5 155.233 169.5Z" fill="#4563AA"/>
<path d="M125.683 231.883C125.683 233.697 127.153 235.167 128.967 235.167C130.78 235.167 132.25 233.697 132.25 231.883V225.317C132.25 223.503 130.78 222.033 128.967 222.033C127.153 222.033 125.683 223.503 125.683 225.317V231.883Z" fill="#4563AA"/>
<path d="M224.183 97.2667V74.2833C224.183 72.47 222.713 71 220.9 71C219.087 71 217.617 72.47 217.617 74.2833V97.2667C217.617 99.08 219.087 100.55 220.9 100.55C222.713 100.55 224.183 99.08 224.183 97.2667Z" fill="#4563AA"/>
<path d="M237.317 113.683V90.6998C237.317 88.8865 235.847 87.4165 234.033 87.4165C232.22 87.4165 230.75 88.8865 230.75 90.6998V113.683C230.75 115.497 232.22 116.967 234.033 116.967C235.847 116.967 237.317 115.497 237.317 113.683Z" fill="#4563AA"/>
<path d="M145.383 97.2667V74.2833C145.383 72.47 143.913 71 142.1 71C140.287 71 138.817 72.47 138.817 74.2833V97.2667C138.817 99.08 140.287 100.55 142.1 100.55C143.913 100.55 145.383 99.08 145.383 97.2667Z" fill="#4563AA"/>
<path d="M132.25 113.683V90.6998C132.25 88.8865 130.78 87.4165 128.967 87.4165C127.153 87.4165 125.683 88.8865 125.683 90.6998V113.683C125.683 115.497 127.153 116.967 128.967 116.967C130.78 116.967 132.25 115.497 132.25 113.683Z" fill="#4563AA"/>
</g>
<path d="M79.8068 397L71.8523 367.909H75.4318L81.5114 391.602H81.7955L87.9886 367.909H91.9659L98.1591 391.602H98.4432L104.523 367.909H108.102L100.148 397H96.5114L90.0909 373.818H89.8636L83.4432 397H79.8068ZM116.014 367.909V397H112.491V367.909H116.014ZM121.487 371.034V367.909H143.305V371.034H134.157V397H130.634V371.034H121.487ZM148.741 397V367.909H152.264V380.864H167.776V367.909H171.298V397H167.776V383.989H152.264V397H148.741ZM187.328 397H178.351V367.909H187.726C190.548 367.909 192.963 368.491 194.97 369.656C196.978 370.812 198.517 372.473 199.587 374.642C200.657 376.801 201.192 379.386 201.192 382.398C201.192 385.428 200.652 388.037 199.572 390.224C198.493 392.402 196.921 394.079 194.857 395.253C192.792 396.418 190.283 397 187.328 397ZM181.874 393.875H187.101C189.506 393.875 191.5 393.411 193.081 392.483C194.662 391.555 195.841 390.234 196.618 388.52C197.394 386.806 197.783 384.765 197.783 382.398C197.783 380.049 197.399 378.027 196.632 376.332C195.865 374.628 194.719 373.321 193.195 372.412C191.67 371.493 189.771 371.034 187.499 371.034H181.874V393.875ZM207.101 397V367.909H216.93C219.203 367.909 221.069 368.297 222.527 369.074C223.985 369.841 225.065 370.897 225.766 372.241C226.466 373.586 226.817 375.116 226.817 376.83C226.817 378.544 226.466 380.063 225.766 381.389C225.065 382.715 223.99 383.757 222.541 384.514C221.092 385.262 219.241 385.636 216.987 385.636H209.033V382.455H216.874C218.427 382.455 219.677 382.227 220.624 381.773C221.58 381.318 222.271 380.674 222.697 379.841C223.133 378.998 223.351 377.994 223.351 376.83C223.351 375.665 223.133 374.647 222.697 373.776C222.262 372.904 221.566 372.232 220.609 371.759C219.653 371.276 218.389 371.034 216.817 371.034H210.624V397H207.101ZM220.794 383.932L227.953 397H223.862L216.817 383.932H220.794ZM233.88 397H230.187L240.869 367.909H244.505L255.187 397H251.494L242.8 372.511H242.573L233.88 397ZM235.244 385.636H250.13V388.761H235.244V385.636ZM262.737 397L254.782 367.909H258.362L264.441 391.602H264.725L270.918 367.909H274.896L281.089 391.602H281.373L287.452 367.909H291.032L283.077 397H279.441L273.021 373.818H272.793L266.373 397H262.737Z" fill="#4563AA"/>
<defs>
<clipPath id="clip0_9_38791">
<rect width="197" height="197" fill="white" transform="translate(83 71)"/>
</clipPath>
</defs>
</svg>
